<?xml version="1.0" encoding="utf-8"?>
<!-- Generator: Adobe Illustrator 16.0.0, SVG Export Plug-In . SVG Version: 6.00 Build 0)  -->
<!DOCTYPE svg PUBLIC "-//W3C//DTD SVG 1.1//EN" "http://www.w3.org/Graphics/SVG/1.1/DTD/svg11.dtd">
<svg version="1.1" id="Layer_1" xmlns="http://www.w3.org/2000/svg" xmlns:xlink="http://www.w3.org/1999/xlink" x="0px" y="0px"
	 width="1280px" height="800px" viewBox="0 0 1280 800" enable-background="new 0 0 1280 800" xml:space="preserve">
<g>
	<path fill="#A90059" d="M224.604,697.181c-30.077-12.879-51.148-44.47-51.486-77.189c-0.194-18.78,5.634-38.721-2.474-55.661
		c-5.43-11.346-16.167-19.05-26.471-26.259c-23.188-16.218-46.379-32.438-69.568-48.659c-16.306-11.405-32.944-23.135-44.482-39.348
		c-11.536-16.215-17.181-38.067-9.294-56.34c7.887-18.273,32.139-29.311,49.136-18.962c16.246,9.89,18.846,32.234,17.727,51.222
		c-1.119,18.988-3.7,39.863,7.275,55.396c20.078,28.418,65.878,16.183,96.408,32.863c50.453,27.571,33.788,114.538,81.308,146.897
		c4.957,3.376,11.619,5.955,16.76,2.87c6.933-4.156,5.495-14.447,3.167-22.187c-2.956-9.82-5.912-19.641-8.871-29.461
		c-11.561-38.406-24.933-79.479-57.073-103.465c-5.761-4.298-12.315-8.284-15.317-14.817c-3.002-6.529,0.207-16.366,7.388-16.71
		c5.275-0.253,9.294,4.455,12.424,8.71c11.916,16.22,23.831,32.438,35.746,48.657c5.495,7.484,11.19,15.151,19.067,20.063
		c9.104,5.676,20.383,7.189,29.283,13.177c14.619,9.834,19.234,28.756,24.785,45.477c5.551,16.725,16.003,35.026,33.502,37.061
		c14.865,1.726,28.358-9.587,35.996-22.459c1.811-3.059,3.655-6.461,6.925-7.842c3.273-1.382,8.12,1.06,7.372,4.533
		c35.303-10.656,73.522-11.467,109.245-2.319c29.244,7.491,56.687,21.446,86.36,27.001c29.671,5.552,64.234,0.568,82.938-23.126
		c13.382-16.95,18.198-42.392,37.935-51.146c16.837-7.472,40.627-0.391,51.692-15.116c5.646-7.518,5.194-17.855,4.049-27.185
		c-1.148-9.331-2.638-19.296,1.503-27.739c4.14-8.438,16.646-13.271,23.135-6.47c5.856,6.139,2.812,16.144-0.562,23.927
		c-10.829,24.966-22.4,50.933-43.521,68.093c22.558,0.043,44.558-13.89,54.17-34.298c8.809-18.712,7.358-40.354,8.234-61.019
		c0.873-20.665,5.488-43.361,22.01-55.8c10.826-8.147,25.687-10.929,34.169-21.497c10.101-12.584,7.22-30.906,11.904-46.343
		c1.71-5.634,6.457-11.901,12.105-10.247c3.386,0.991,5.348,4.528,6.349,7.914c5.117,17.314-5.773,35.295-18.425,48.18
		c-12.646,12.885-27.977,24.097-35.299,40.601c-16.315,36.762,12.695,86.094-12.667,117.304
		c-7.011,8.626-18.072,19.943-10.774,28.33c3.612,4.149,10.148,4.262,15.338,2.431c16.521-5.831,23.425-25.534,24.681-43.012
		c1.253-17.477-0.771-35.916,6.758-51.737c6.417-13.492,18.894-23.041,27.242-35.426c22.221-32.979,12.198-80.494,35.432-112.767
		c14.191-19.716,37.94-29.658,57.634-43.879c34.938-25.232,57.962-66.289,61.27-109.26c7.65-3.752,13.208,8.334,12.267,16.805
		c-7.576,68.261-97.383,100.875-113.005,167.754c8.735-7.058,15.786-16.189,20.405-26.426c5.187,9.21,1.83,21.134-4.449,29.631
		c-6.282,8.499-15.075,14.755-22.374,22.394c-12.295,12.868-20.051,29.297-27.596,45.414
		c-10.955,23.398-22.145,47.835-21.706,73.668c0.3,17.637,5.959,35.978-0.373,52.442c-3.472,9.03-10.476,17.227-10.052,26.892
		c0.423,9.664,15.937,16.662,19.182,7.55c27.789-13.98,33.442-51.468,41.004-81.644c7.563-30.177,12.599-62.559,32.263-86.665
		c29.351-35.987,82.485-43.025,116.479-74.668c32.694-30.433,42.731-78.767,72.798-111.795
		c22.396-24.602,56.424-41.896,64.547-74.162c1.036-4.115,1.856-8.777,5.295-11.261c8.739-6.313,17.666,8.592,16.722,19.334
		c-2.441,27.683-21.305,53.29-47.015,63.818c-6.87,2.812-14.403,4.771-19.782,9.886c-6.446,6.133-8.438,15.452-10.541,24.097
		c-9.123,37.517-27.281,74.331-58.162,97.506c-29.291,21.979-67.435,29.953-95.953,52.921
		c-29.447,23.713-45.571,62.995-41.274,100.56c6.792,3.708,14.755-3.97,16.112-11.588c1.354-7.616-0.755-15.636,1.249-23.106
		c4.686-17.459,26.823-21.623,44.401-25.818c33.174-7.919,63.392-27.664,83.968-54.868c12.41-16.405,23.381-36.89,43.278-42.11
		c-3.468,31.01-25.697,57.007-51.158,75.04c-25.461,18.033-54.658,30.032-81.269,46.32c-8.109,4.961-16.117,10.457-21.915,17.99
		c-8.611,11.201-11.501,25.776-18.771,37.89c-18.959,31.588-64.241,41.786-78.804,75.627c-3.672,8.528-5.007,17.909-8.609,26.463
		c-7.863,18.673-25.933,31.524-45.188,37.814c-19.257,6.291-39.847,6.896-60.098,7.266c-151.651,2.746-303.279-4.784-454.766-12.312
		C327.725,706.512,267.059,715.354,224.604,697.181z"/>
	<g>
		<path fill="#FAC70B" d="M1021.384,668.513c-3.408-2.897-8.362-3.189-12.342-1.151c-12.479,6.388-12.617,23.076-23.201,30.451
			c-7.781,5.425-22.416-3.549-16.266-10.768c-10.642-6.688-22.643,8.141-35.2,8.619c-9.878,0.381-18.201-9.227-18.72-19.099
			c-0.672-12.819,9.157-24.771,19.835-30.515c5.646-3.036,8.743-9.604,6.807-15.717c-3.369-10.638-16.498-6.877-23.554-0.607
			c-7.595,6.749-13.472,15.418-16.936,24.97c-3.691,10.181-8.248,24.108-19.028,23.082c-2.591-0.245-5.009-1.466-7.591-1.798
			c-1.89-0.243-3.654-0.036-5.324,0.509c-20.17,6.579-41.067,10.563-62.218,8.893c-0.751-0.061-1.507-0.119-2.264-0.178
			c-4.819-0.377-8.507-4.46-8.365-9.292l0,0c0.236-8.24-8.435-13.722-15.773-9.976l0,0c-13.657-18.18,0.452-44.548,18.205-58.755
			c17.751-14.203,40.295-24.832,49.669-45.549c4.181-9.235,0.075-24.835-9.705-22.154c-13.103,43.518-69.133,61.564-85.404,103.999
			c-4.347,11.336-6.069,24.704-18.001,30.715c-6.477,3.265-14.603,1-17.443-5.67c-2.569-6.033,1.961-10.315,3.14-15.51
			c0.879-3.872-1.956-9.154-5.734-7.94c-0.053,0.145-0.105,0.292-0.158,0.437c-7.388,20.162-27.37,32.877-48.826,32.112
			c-54.294-1.936-46.221-2.999-107.887-2.999c-8.447,0-16.842,0.021-25.185,0.06c-42.691-8.502,22.722-14.732-20.832-14.785
			c-8.297-0.01-16.354,2.828-22.823,8.022l0,0c-9.944,3.74-19.163,7.205-29.106,10.946c-1.853,0.078-3.7,0.16-5.544,0.242
			c-2.999-0.935-5.915-2.175-8.622-3.623c-10.2-5.442-19.06-13.354-29.781-17.675c-16.722,15.845-45.903,3.767-58.472-15.543
			c-12.564-19.306-15.36-43.327-25.175-64.172c-10.2-21.655-34.358-41.179-56.749-30.804c-2.645,1.225-5.046,3.048-6.633,5.49
			c-5.699,8.757,1.938,17.921,10.295,21.294c7.171,2.895,15.195,3.213,22.292,6.28c8.861,3.829,15.694,12.045,17.847,21.455
			c1.696,7.415,0.607,15.166,1.283,22.738c1.647,18.434,13.782,34.63,28.742,45.52l0.227,0.163
			c6.486,4.709,3.599,14.937-4.39,15.586c-25.064,2.037-47.848,4.312-67.952,6.782c-7.372-3.331-14.662-6.841-21.859-10.536
			c-4.399-2.26-8.356,3.688-4.59,6.894l0.26,0.22c2.723,2.32,1.437,6.76-2.096,7.301c-1.67,0.256-3.317,0.516-4.935,0.774
			c-10.911-3.146-20.251-5.837-31.166-8.983c-12.598-10.949-24.49-22.823-39.635-30.121c-3.721-1.791-7.946-2.546-11.976-1.654
			c-10.124,2.238-11.391,11.396-10.513,19.198c2.567,22.827,14.268,34.515,29.864,40.916c-0.748,1.023-1.163,2.054-1.163,3.094
			c0,24.897,109.515,45.08,378.389,45.08c209.462,0,320.953-12.248,389.639-29.432c6.541-1.023,13.011-2.447,19.369-4.42
			c24.677-7.672,47.789-25.11,55.423-49.804C1024.831,676.909,1025.662,672.151,1021.384,668.513z"/>
		<path fill="#FAC70B" d="M172.516,594.268c2.257,12.347,11.099,22.505,20.912,30.334c6.575,5.246,23.65,21.918,32.341,21.415
			c13.431-0.777,8.934-13.879,1.752-22.524c-5.466-6.578-12.611-11.943-16.417-19.604c-6.075-12.231-2.175-26.998-4.888-40.384
			c-3.438-16.957-18.663-30.826-35.862-32.674c-4.826-0.519-10.742,0.485-12.605,4.968c-2.676,6.435,5.072,11.851,9.312,17.38
			C175.614,564.333,169.988,580.438,172.516,594.268z"/>
		<path fill="#FAC70B" d="M823.489,668.479c0.58-1.24,1.161-2.48,1.742-3.724c0.121-0.502,0.248-1,0.402-1.467L823.489,668.479z"/>
		<path fill="#FAC70B" d="M847.605,623.256c-3.058,0.729-4.767,3.898-6.1,6.743c-5.425,11.586-10.848,23.171-16.274,34.757
			c-1.067,4.403-0.856,9.936,3.346,10.713c2.739,0.509,5.173-1.706,7.001-3.813c8.209-9.473,14.569-20.543,18.621-32.408
			c1.145-3.353,2.112-6.975,1.204-10.401C854.497,625.422,851.049,622.432,847.605,623.256z"/>
	</g>
	<g>
		<polygon fill="#21174A" points="520.033,747.018 494.611,750.601 484.631,752.008 254.415,443.352 350.991,342.817 
			384.939,402.266 451.592,518.998 492.695,586.153 		"/>
		<path fill="#31236C" d="M494.611,750.601l-9.979,1.407l-25.569-34.281L254.415,443.352l96.576-100.534l13.589,23.801l20.36,35.647
			c-0.486,16.776-2.12,33.618-1.595,48.859c0.925,26.259,3.284,52.895,9.386,78.526c9.947,41.786,36.008,76.362,59.167,111.602
			C470.219,669.13,500.979,713.867,494.611,750.601z"/>
		<path fill="#61558F" d="M459.062,717.727L254.415,443.352l96.576-100.534l13.589,23.801c-2.55,3.61-5.099,7.081-7.283,10.316
			c-5.489,8.144-9.872,16.957-13.215,26.164c-6.069,16.668-8.727,34.649-8.455,52.302c0.978,63.562,34.988,119.688,72.151,168.82
			C417.644,637.244,464.479,691.048,459.062,717.727z"/>
	</g>
	<g>
		<g>
			<path fill="#31236C" d="M579.117,792.313l21.62,4.944l22.958-42.7l25.064-46.597l52.684-97.997l106.014-197.152l35.219-187.163
				L708.043,355.601l-41.674,108.136l-44.391,115.194C599.454,607.208,579.117,792.313,579.117,792.313z"/>
			<polygon fill="#31236C" points="708.043,355.601 726.293,353.235 727.401,387.011 748.205,373.47 750.996,399.896 
				751.787,399.584 774.602,390.676 776.283,416.489 807.456,412.812 835.565,263.44 836.297,259.588 838.77,246.448 
				842.675,225.648 828.078,239.734 815.163,252.196 			"/>
			<path fill="#31236C" d="M652.15,626.885c-0.306,4.404-1.154,11.757-2.03,20.655c-1.742,17.806-3.54,41.759-1.361,60.421
				l52.684-97.997c-0.233-0.965-0.449-1.923-0.669-2.884c-5.121-23.109-7.854-46.733-8.186-70.396
				c-0.668-45.24,7.063-91.744,24.49-133.624c-14.723,35.367-35.464,69.113-45.883,106.056
				C660.48,547.184,655.027,587.518,652.15,626.885z"/>
			<polygon fill="#31236C" points="708.043,355.601 726.293,353.235 727.401,387.011 748.205,373.47 750.996,399.896 
				751.787,399.584 819.759,282.333 825.799,255.917 836.297,259.588 838.77,246.448 828.078,239.734 815.163,252.196 			"/>
			<polygon fill="#31236C" points="815.163,252.196 819.397,272.142 835.565,263.44 842.675,225.648 			"/>
		</g>
		<polygon fill="#FAAC00" points="708.043,355.601 726.293,353.235 727.401,387.011 748.205,373.47 750.996,399.896 
			751.787,399.584 774.602,390.676 776.283,416.489 807.456,412.812 835.565,263.44 836.297,259.588 838.77,246.448 
			842.675,225.648 828.078,239.734 815.163,252.196 		"/>
		<path fill="#21174A" d="M579.117,792.313l21.62,4.944c0,0,22.958-42.697,22.958-42.7c3.438-6.393,1.19-21.05,1.292-28.268
			c0.161-11.234,0.43-22.452,1.024-33.681c1.26-23.88,3.474-47.711,6.626-71.413c3.619-27.214,8.477-54.261,14.556-81.032
			c5.653-24.884,10.063-52.783,19.176-76.427l-44.391,115.194C599.454,607.208,579.117,792.313,579.117,792.313z"/>
		<path fill="#21174A" d="M652.15,626.885c-0.306,4.404-1.154,11.757-2.03,20.655c-1.742,17.806-3.54,41.759-1.361,60.421
			l52.684-97.997c-0.233-0.965-0.449-1.923-0.669-2.884c-5.121-23.109-7.854-46.733-8.186-70.396
			c-0.668-45.24,7.063-91.744,24.49-133.624c-14.723,35.367-35.464,69.113-45.883,106.056
			C660.48,547.184,655.027,587.518,652.15,626.885z"/>
		<polygon fill="#FAC70B" points="708.043,355.601 726.293,353.235 727.401,387.011 748.205,373.47 750.996,399.896 
			751.787,399.584 819.759,282.333 825.799,255.917 836.297,259.588 838.77,246.448 828.078,239.734 815.163,252.196 		"/>
		<polygon fill="#31236C" points="815.163,252.196 819.397,272.142 835.565,263.44 842.675,225.648 		"/>
	</g>
	<g>
		<g>
			<path fill="#59B9C6" d="M594.795,297.348c0,0-42.291-81.251,33.728-157.788c76.017-76.541,51.418-98.408,32.284-133.944
				c0,0,120.259,48.293,91.107,189.525c-14.578,72.894-73.795,102.208-73.795,102.208H594.795z"/>
			<path fill="#86CBD3" d="M642.108,273.924c-3.293-4.659-5.518-10.06-7.201-15.592c-1.687-5.555-2.634-11.353-2.988-17.204
				c-0.722-11.726,1.151-23.594,4.727-34.829c1.851-5.601,4.107-11.053,6.69-16.342l2.037-3.906l1.03-1.951l1.115-1.893l2.241-3.787
				l2.385-3.685c3.175-4.925,6.755-9.537,10.374-14.101l5.205-6.451c1.664-2.186,3.398-4.327,5.001-6.544
				c3.303-4.374,6.449-8.839,9.397-13.402c2.953-4.551,5.771-9.182,8.229-13.946c2.5-4.745,4.686-9.617,6.541-14.573
				c1.805-4.971,3.206-10.053,4.071-15.216c1.799-10.324,1.106-21.006-1.905-31.409c-1.467-5.212-3.507-10.331-5.844-15.38
				c-0.581-1.267-1.216-2.505-1.827-3.765l-1.958-3.723l-2.024-3.716c-0.712-1.217-1.413-2.448-2.103-3.693
				c2.021,1.997,3.927,4.103,5.827,6.236c1.843,2.175,3.627,4.412,5.34,6.721c3.419,4.626,6.417,9.63,8.881,14.974
				c2.444,5.348,4.311,11.056,5.383,16.973c1.1,5.913,1.353,12.012,0.903,18.03c-0.866,12.093-4.679,23.664-9.679,34.308
				c-2.47,5.368-5.429,10.424-8.44,15.419c-1.565,2.458-3.137,4.912-4.807,7.281c-1.62,2.413-3.333,4.74-5.048,7.069
				c-1.72,2.33-3.55,4.55-5.322,6.828l-5.485,6.626c-1.715,2.102-3.522,4.144-5.173,6.294c-1.634,2.16-3.344,4.275-4.888,6.494
				l-2.369,3.296l-2.222,3.385c-1.528,2.234-2.838,4.579-4.274,6.871c-2.638,4.688-5.111,9.471-7.247,14.409
				c-4.179,9.891-7.102,20.354-8.08,31.179c-0.525,5.411-0.509,10.89,0,16.386c0.259,2.747,0.668,5.493,1.25,8.219
				C640.4,268.553,641.124,271.263,642.108,273.924z"/>
			<path fill="#86CBD3" d="M649.877,271.68c-1.06-3.022-1.735-6.182-2.228-9.358c-0.498-3.18-0.777-6.395-0.886-9.624
				c-0.227-6.451,0.275-12.935,1.365-19.316c2.158-12.778,6.683-25.13,12.863-36.494c6.151-11.403,13.973-21.81,22.731-31.233
				c8.756-9.435,18.528-17.861,29.015-25.185c-9.417,8.652-18.451,17.63-26.627,27.311c-2.01,2.446-4.064,4.848-5.964,7.376
				c-0.958,1.256-1.955,2.48-2.88,3.762l-2.732,3.863c-0.93,1.277-1.798,2.591-2.658,3.911c-0.856,1.322-1.758,2.617-2.575,3.962
				c-1.613,2.706-3.264,5.388-4.708,8.185c-3.03,5.509-5.712,11.217-7.916,17.102c-2.27,5.862-4.039,11.905-5.419,18.048
				c-1.322,6.145-2.248,12.406-2.493,18.722c-0.185,3.157-0.151,6.327,0.006,9.493C648.948,265.37,649.234,268.546,649.877,271.68z"
				/>
			<path fill="#86CBD3" d="M595.215,278.97c-1.217-5.981-1.706-12.097-1.906-18.204c-0.174-6.112,0-12.241,0.492-18.351
				c1.05-12.209,3.389-24.334,7.015-36.08c3.533-11.779,8.46-23.119,14.284-33.956c5.872-10.818,12.893-20.989,20.632-30.541
				c3.884-4.781,7.831-9.321,11.646-14.066c3.812-4.72,7.562-9.491,11.17-14.352c7.264-9.676,14.032-19.772,19.117-30.626
				c2.473-5.44,4.494-11.11,5.386-16.98c0.531-2.925,0.63-5.899,0.601-8.867c-0.089-2.971-0.513-5.927-1.092-8.862
				c-1.263-5.855-3.393-11.551-5.942-17.057c-2.548-5.509-5.38-10.908-8.224-16.3c3.228,5.171,6.388,10.391,9.202,15.823
				c2.841,5.41,5.304,11.079,6.922,17.075c0.731,3.012,1.273,6.088,1.483,9.207c0.15,3.112,0.154,6.261-0.286,9.358
				c-0.721,6.229-2.727,12.199-5.124,17.897c-2.431,5.704-5.403,11.129-8.629,16.365c-3.215,5.247-6.679,10.317-10.288,15.27
				c-7.172,9.922-15.064,19.344-22.771,28.711c-15.337,18.619-27.429,39.938-35.053,62.872c-3.819,11.456-6.549,23.298-8.061,35.32
				C594.23,254.634,593.804,266.863,595.215,278.97z"/>
			<path fill="#86CBD3" d="M680.242,285.044c8.412-5.509,15.896-12.275,22.556-19.697c6.662-7.422,12.595-15.477,17.508-24.113
				c4.898-8.64,8.963-17.738,11.994-27.183c3.062-9.435,5.085-19.188,6.273-29.035l0.439-3.696c0.157-1.23,0.299-2.464,0.347-3.706
				l0.447-7.437c0.124-2.48,0.042-4.969,0.075-7.454l0.01-3.729c-0.021-1.242-0.118-2.483-0.165-3.726l-0.359-7.458
				c-0.207-2.482-0.502-4.956-0.749-7.435c-0.405-4.973-1.335-9.879-2.044-14.822c-0.314-2.478-0.908-4.907-1.391-7.358
				l-1.496-7.349c-1.178-4.859-2.414-9.71-3.657-14.563c-1.424-4.8-2.796-9.628-4.269-14.427c-1.65-4.736-3.251-9.497-4.823-14.281
				c8.205,18.352,14.892,37.525,18.781,57.395c3.908,19.822,5.477,40.324,2.918,60.547c-1.292,10.082-3.386,20.099-6.663,29.751
				c-3.323,9.625-7.582,18.94-12.929,27.593c-5.272,8.702-11.689,16.665-18.801,23.864c-3.616,3.546-7.389,6.923-11.378,10.024
				C688.888,279.85,684.701,282.704,680.242,285.044z"/>
		</g>
		<g>
			<g>
				<path fill="#DF0E62" d="M696.702,330.271l4.654-19.848c-49.494-61.577-142.452-7.245-142.452-7.245l-0.984,17.918
					C571.991,315.82,654.112,287.606,696.702,330.271z"/>
				<path fill="#DF0E62" d="M692.128,338.588c-40.683-44.465-131.881-8.698-132.797-8.334L534.76,742.673h65.189L692.128,338.588z"
					/>
			</g>
			<path fill="#A90059" d="M620.525,330.271c-2.792,34.553-6.295,69.015-10.045,103.448c-1.811,17.226-3.877,34.419-5.823,51.625
				l-6.22,51.575l-6.61,51.528c-2.34,17.156-4.544,34.334-7.018,51.474c-4.806,34.302-9.868,68.572-15.646,102.752
				c2.785-34.554,6.283-69.019,10.036-103.45c1.808-17.224,3.881-34.416,5.823-51.626l6.229-51.572l6.621-51.524
				c2.335-17.16,4.547-34.333,7.02-51.478C609.699,398.721,614.758,364.453,620.525,330.271z"/>
			<path fill="#A90059" d="M669.768,350.945c-3.162,16.458-6.555,32.867-9.826,49.305l-10.196,49.224
				c-6.836,32.808-13.988,65.547-20.966,98.322c-7.264,32.717-14.376,65.461-21.783,98.145l-11.184,49.011
				c-3.855,16.308-7.592,32.644-11.555,48.928c3.159-16.458,6.552-32.87,9.822-49.305l10.193-49.225
				c6.843-32.808,13.985-65.55,20.973-98.322c7.273-32.712,14.373-65.464,21.792-98.145l11.179-49.011
				C662.07,383.566,665.809,367.229,669.768,350.945z"/>
			<path fill="#A90059" d="M633.753,395.349c-2.549,21.505-5.328,42.97-8.336,64.405c-2.956,21.438-6.121,42.849-9.33,64.251
				c-3.271,21.393-6.591,42.78-10.118,64.134c-3.478,21.359-7.185,42.687-11.125,63.979c2.545-21.502,5.321-42.97,8.329-64.402
				c2.959-21.442,6.125-42.852,9.337-64.252c3.277-21.393,6.594-42.778,10.124-64.132
				C626.112,437.967,629.819,416.643,633.753,395.349z"/>
		</g>
	</g>
	<g>
		<g>
			<path fill="#127681" d="M540.796,742.666h-21.728l-12.604-45.801l-13.763-49.988l-28.918-105.114l-58.202-211.482l7.244-186.472
				l100.213,153.546l16.187,112.395l17.24,119.732C561.802,561.413,540.796,742.666,540.796,742.666z"/>
			<polygon fill="#127681" points="513.038,297.354 496.123,291.107 487.685,323.127 470.774,305.649 462.332,330.281 
				461.647,329.808 441.799,316.316 434.556,340.603 405.581,330.281 411.358,181.461 411.502,177.623 412.011,164.527 
				412.825,143.809 423.69,160.452 433.306,175.178 			"/>
			<path fill="#127681" d="M507.169,568.693c-0.669,4.273-1.467,11.482-2.572,20.177c-2.228,17.387-5.738,40.656-11.896,58.007
				l-28.918-105.114c0.433-0.869,0.849-1.739,1.266-2.608c9.943-20.954,17.712-42.924,23.197-65.452
				c10.521-43.068,13.293-89.181,5.794-132.991c6.338,37.001,18.778,73.767,20.661,111.329
				C516.621,490.745,513.019,530.459,507.169,568.693z"/>
			<polygon fill="#127681" points="513.038,297.354 496.123,291.107 487.685,323.127 470.774,305.649 462.332,330.281 
				461.647,329.808 422.332,202.959 422.332,176.408 411.502,177.623 412.011,164.527 423.69,160.452 433.306,175.178 			"/>
			<polygon fill="#127681" points="433.306,175.178 424.904,193.307 411.358,181.461 412.825,143.809 			"/>
		</g>
		<polygon fill="#FAC70B" points="513.038,297.354 496.123,291.107 487.685,323.127 470.774,305.649 462.332,330.281 
			461.647,329.808 441.799,316.316 434.556,340.603 405.581,330.281 411.358,181.461 411.502,177.623 412.011,164.527 
			412.825,143.809 423.69,160.452 433.306,175.178 		"/>
		<path fill="#094F58" d="M540.796,742.666h-21.728l-12.604-45.801c-1.887-6.857,3.46-20.366,4.937-27.286
			c2.303-10.765,4.495-21.54,6.381-32.396c4.012-23.085,7.103-46.329,9.268-69.661c2.487-26.783,3.756-53.683,3.796-80.581
			c0.036-25.005,1.919-52.616-1.621-77.192l17.24,119.732C561.802,561.413,540.796,742.666,540.796,742.666z"/>
		<path fill="#094F58" d="M507.169,568.693c-0.669,4.273-1.467,11.482-2.572,20.177c-2.228,17.387-5.738,40.656-11.896,58.007
			l-28.918-105.114c0.433-0.869,0.849-1.739,1.266-2.608c9.943-20.954,17.712-42.924,23.197-65.452
			c10.521-43.068,13.293-89.181,5.794-132.991c6.338,37.001,18.778,73.767,20.661,111.329
			C516.621,490.745,513.019,530.459,507.169,568.693z"/>
		<polygon fill="#FAAC00" points="513.038,297.354 496.123,291.107 487.685,323.127 470.774,305.649 462.332,330.281 
			461.647,329.808 422.332,202.959 422.332,176.408 411.502,177.623 412.011,164.527 423.69,160.452 433.306,175.178 		"/>
		<polygon fill="#31236C" points="433.306,175.178 424.904,193.307 411.358,181.461 412.825,143.809 		"/>
	</g>
	<path fill="#A90059" d="M369.799,336.269c-5.256-11.389-16.902-18.276-24.868-27.965c-9.976-12.137-13.732-28.028-19.1-42.796
		c-5.364-14.768-13.775-30.002-28.351-35.863c-5.738,19.572,2.693,40.634,14.373,57.351c11.682,16.717,26.71,31.072,36.835,48.777
		c6.748,11.802,11.423,26.518,22.896,34.426C378.25,364.29,373.817,344.973,369.799,336.269z"/>
	<path fill="#A90059" d="M239.83,358.406c-2.526-9.545-8.071-17.96-13.526-26.19c-5.794-8.731-11.584-17.462-17.378-26.193
		c-8.625-13.003-17.391-26.312-21.354-41.405c-3.174-12.084-3.118-24.766-5.227-37.08c-2.107-12.314-6.968-25.019-17.203-32.178
		c-11.268,10.729-12.047,28.923-6.83,43.583c5.216,14.661,15.263,26.991,23.689,40.073c10.813,16.783,19.126,35.177,24.582,54.385
		c5.945,20.93,8.989,54.322,28.886,67.043C242.526,389.833,243.13,370.875,239.83,358.406z"/>
	<path fill="#FAC70B" d="M841.354,463.613c5.207-7.768,8.104-16.837,10.423-25.896c6.998-27.352,9.274-55.904,6.7-84.02
		c11.167-6.576,21.329-14.851,30.034-24.455c4.414-4.872,8.578-10.342,9.888-16.79c1.306-6.444-1.03-14.04-6.894-17.016
		c-6.561-3.327-14.507,0.102-20.51,4.354c-19.49,13.797-31.905,37.1-32.481,60.977c-0.293,12.051,2.243,24.011,2.421,36.066
		c0.174,12.055-2.478,24.982-11.197,33.311c1.228-9.132,2.454-18.267,3.681-27.397c-8.313,0.793-13.814,9.374-15.284,17.594
		c-1.472,8.222-0.239,16.743-1.673,24.972c-2.487,14.303-12.873,26.229-25.116,34.022c-15.462,9.844-36.573,36.591-4.508,24.264
		C804.724,496.723,830.611,479.638,841.354,463.613z"/>
</g>
</svg>
