<?xml version="1.0" encoding="utf-8"?>
<!-- Generator: Adobe Illustrator 16.0.0, SVG Export Plug-In . SVG Version: 6.00 Build 0)  -->
<!DOCTYPE svg PUBLIC "-//W3C//DTD SVG 1.1//EN" "http://www.w3.org/Graphics/SVG/1.1/DTD/svg11.dtd">
<svg version="1.1" id="Layer_1" xmlns="http://www.w3.org/2000/svg" xmlns:xlink="http://www.w3.org/1999/xlink" x="0px" y="0px"
	 width="1280px" height="800px" viewBox="0 0 1280 800" enable-background="new 0 0 1280 800" xml:space="preserve">
<path fill="#E8ACA6" d="M1196.887,393.735c46.651-35.876,68.955-95.878,61.016-154.253c-4.163-30.612-16.577-60.268-37.064-83.333
	c-9.369-10.548-20.479-19.638-32.91-26.214c-10.875-5.752-19.609-10.074-29.604-10.171c-6.921-0.068-13.494-0.127-18.202,0.183
	c-17.002,1.119-18.33,5.889-30.65,13.045c-11.418,6.632-22.535,13.796-32.988,21.901c-24.795,19.225-48.987,42.976-63.497,71.638
	c-27.942,55.201-2.044,117.305,35.204,160.923c18.362,21.501,42.552,34.156,70.871,34.248
	C1147.271,421.792,1174.582,410.889,1196.887,393.735z"/>
<path fill="#FFE67D" d="M828.71,481.782c24.828,0.854,49.886-10.224,70.714-26.038c20.176-15.319,37.884-36.62,47.474-62.13
	c9.153-24.353,9.391-51,1.116-74.911c-7.816-22.578-22.004-41.675-38.695-56.346c-3.026-4.13-6.519-7.778-10.752-10.582
	c-10.996-7.279-24.258-8.562-36.894-9.284c-12.438-0.709-24.97-1.319-37.468-0.155c-24.924,2.321-47.604,13.945-62.127,38.488
	c-14.994,25.334-18.23,56.128-15.065,85.17C752.662,417.86,775.912,479.966,828.71,481.782z"/>
<path fill="#C7E598" d="M455.008,589.561c19.071,6.371,40.641,4.285,59.849-2.163c18.608-6.244,36.465-17.329,48.85-33.299
	c11.822-15.246,17.18-34.198,15.411-53.174c-1.67-17.918-8.955-34.833-19.04-49.17c-1.543-3.649-3.541-7.062-6.278-10.045
	c-7.104-7.743-17.13-11.736-26.784-15.184c-9.498-3.393-19.09-6.736-29-8.806c-19.764-4.127-39.594-1.1-55.614,13.036
	c-16.537,14.591-25.024,35.806-28.212,57.255C408.498,526.316,414.453,576.014,455.008,589.561z"/>
<g>
	<defs>
		<rect id="SVGID_1_" width="1280.473" height="800"/>
	</defs>
	<clipPath id="SVGID_2_">
		<use xlink:href="#SVGID_1_"  overflow="visible"/>
	</clipPath>
	<g clip-path="url(#SVGID_2_)">
		<g>
			<g>
				<g>
					<g>
						<path d="M623.813,433.952c4.008-10.007-3.45-19.531-12.172-23.74c-5.508-2.658-11.797-3.473-17.768-4.43
							c-6.698-1.074-13.25-2.601-19.704-4.694c-26.997-8.757-48.896-27.97-59.073-54.629
							c-19.063-49.938-6.097-110.728,27.641-151.223c33.744-40.501,90.464-59.609,141.836-48.209
							c48.588,10.781,88.735,51.161,100.033,99.46c5.415,23.15,2.949,47.418-1.561,70.487c-4.36,22.304-11.554,44.7-25.98,62.634
							c-6.4,7.957-14.284,14.646-23.155,19.686c-9.486,5.388-19.704,7.146-30.352,8.613c-9.337,1.286-18.358,3.416-25.151,10.324
							c-5.398,5.489-7.657,13.309-4.574,20.473c0.763,1.772,3.347,0.243,2.59-1.514c-3.067-7.128,0.923-14.048,6.178-18.831
							c5.775-5.257,14.334-6.486,21.756-7.56c13.264-1.917,24.97-4.689,36.318-12.123c22.552-14.77,34.814-40.1,41.68-65.343
							c7.525-27.669,11.37-57.934,5.454-86.244c-4.758-22.774-16.433-43.776-31.866-61.026
							c-32.859-36.726-82.397-51.746-130.387-42.48c-49.798,9.615-90.473,44.305-109.78,90.84
							c-16.239,39.138-18.008,89.46,3.083,127.191c10.326,18.471,28.005,31.645,47.255,39.682
							c10.263,4.285,20.939,6.332,31.842,8.181c11.003,1.865,28.782,9.158,22.966,23.68
							C620.2,434.952,623.103,435.726,623.813,433.952L623.813,433.952z"/>
					</g>
				</g>
				<g>
					<g>
						<path d="M622.004,438.186c9.525,3.534,19.447,4.342,29.536,3.948c5.307-0.207,10.597-0.838,15.861-1.501
							c2.769-0.349,7.047,0.024,8.61-2.746c0.953-1.687-1.639-3.198-2.59-1.514c-1.063,1.881-10.799,1.841-13.058,2.082
							c-4.104,0.439-8.22,0.691-12.346,0.789c-8.611,0.204-17.129-0.95-25.216-3.951
							C620.984,434.618,620.208,437.519,622.004,438.186L622.004,438.186z"/>
					</g>
				</g>
				<g>
					<g>
						<path d="M619.645,434.042c-3.438,11.902-3.082,24.261,1.05,35.942c1.349,3.814,2.978,6.613,6.814,8.145
							c5.762,2.302,13.669,2.123,19.755,2.367c9.318,0.374,24.959,1.895,29.508-8.445c5.036-11.448,3.977-26.638,1.293-38.488
							c-0.427-1.887-3.319-1.087-2.893,0.797c2.396,10.584,2.455,21.229,0.18,31.84c-1.442,6.728-4.422,9.834-11.287,10.665
							c-4.947,0.599-9.954,0.723-14.932,0.678c-5.475-0.049-10.939-0.59-16.35-1.401c-2.874-0.432-5.703-0.68-7.595-3.374
							c-1.361-1.938-1.974-4.573-2.686-6.811c-3.21-10.084-2.878-21.028,0.035-31.117
							C623.075,432.977,620.18,432.187,619.645,434.042L619.645,434.042z"/>
					</g>
				</g>
				<g>
					<g>
						<path d="M619.847,452.093c19.312,4.201,38.298,4.177,57.598-0.078c1.89-0.416,1.088-3.309-0.797-2.893
							c-18.8,4.144-37.192,4.17-56.003,0.078C618.759,448.79,617.957,451.682,619.847,452.093L619.847,452.093z"/>
					</g>
				</g>
				<g>
					<g>
						<path d="M619.949,465.493c19.318,5.266,39.87,7.657,58.539-1.167c1.748-0.826,0.225-3.412-1.514-2.59
							c-17.893,8.457-37.761,5.897-56.227,0.864C618.877,462.091,618.084,464.985,619.949,465.493L619.949,465.493z"/>
					</g>
				</g>
				<g>
					<g>
						<path d="M632.58,481.967c1.178,3.771,2.356,7.542,3.534,11.313c1.071,3.429,1.735,7.711,3.59,10.817
							c2.501,4.188,6.715,5.209,11.427,4.513c5.192-0.767,10.014-2.746,12.352-7.693c3.079-6.517,3.849-14.821,4.699-21.901
							c0.23-1.918-2.772-1.896-3,0c-0.588,4.896-1.47,9.709-2.618,14.503c-1.412,5.893-2.982,9.673-9.168,11.622
							c-2.53,0.798-5.334,0.814-7.912,0.274c-3.464-0.726-4.443-6.425-5.298-9.16c-1.571-5.028-3.142-10.057-4.712-15.084
							C634.898,479.329,632.001,480.115,632.58,481.967L632.58,481.967z"/>
					</g>
				</g>
				<g>
					<g>
						<path d="M641.908,437.81c-3.593-30.231-9.966-59.951-19.06-89.005c-2.209-7.06-4.59-14.068-7.099-21.026
							c-1.942-5.386-4.326-10.518-8.358-14.663c-6.076-6.245-17.684-6.801-22.188,1.404c-4.988,9.085,4.17,18.014,11.798,21.005
							c5.677,2.227,12.379,2.547,18.4,2.878c7.107,0.391,14.212-0.382,20.917-2.811c9.784-3.543,17.662-12.401,18.291-22.96
							c0.604-10.144-8.99-16.12-17.606-10.96c-7.934,4.751-6.498,15.984-2.758,22.819c4.111,7.516,12.428,11.688,20.37,13.822
							c8.985,2.414,19.534,2.435,28.377-0.517c6.942-2.317,14.529-11.863,8.699-18.98c-4.983-6.084-13.982-4.174-18.907,0.966
							c-7.146,7.457-6.319,21.655-7.244,31.088c-2.902,29.606-5.804,59.212-8.705,88.818c-0.188,1.926,2.813,1.907,3,0
							c3.224-32.896,6.448-65.791,9.673-98.687c0.682-6.958,1.133-14.648,6.238-19.976c2.434-2.54,6.463-3.413,9.805-2.815
							c6.742,1.207,5.383,9.309,2.192,13.166c-4.29,5.184-13.269,5.475-19.401,5.566c-6.127,0.092-12.22-0.998-17.957-3.121
							c-5.577-2.064-10.409-5.792-13.549-10.846c-4.605-7.413-3.403-20.062,7.339-20.461c5.39-0.2,7.315,5.906,7.435,10.116
							c0.101,3.57-1.505,7.042-3.329,9.997c-4.187,6.785-11.917,10.353-19.405,11.979c-7.523,1.635-15.691,0.917-23.246-0.121
							c-7.804-1.071-15.867-4.077-18.229-12.315c-2.768-9.652,8.072-12.532,14.93-9.121c6.706,3.336,9.364,12.222,11.667,18.713
							c12.182,34.344,20.611,69.856,24.913,106.046C639.134,439.706,642.137,439.729,641.908,437.81L641.908,437.81z"/>
					</g>
				</g>
			</g>
			<g>
				<g>
					<path d="M648.774,507.289c-9.465,29.383-18.687,59.439-17.7,90.651c0.353,11.149,2.104,24.021,11.313,31.514
						c6.645,5.406,17.091,5.994,23.479,0.018c6.847-6.405,3.345-17.646-2.863-22.966c-7.745-6.637-20.556-4.081-27.854,1.881
						c-10.11,8.259-14.8,21.194-17.79,33.515c-3.412,14.061-3.061,28.348-0.753,42.53c1.796,11.039,0.46,20.486-4.613,30.477
						c-4.159,8.189-10.832,17.329-20.708,18.325c-4.86,0.49-9.645-2.764-12.051-6.735c-3.382-5.582,1.772-10.766,6.842-12.239
						c9.426-2.74,17.674,7.416,23.191,13.499c10.456,11.529,13.843,27.374,17.486,42.093c2.918,11.792,3,23.581,3.002,35.659
						c0,1.935,3,1.935,3,0c-0.001-9.094,0.119-18.202-1.226-27.219c-1.66-11.134-5.149-22.264-8.639-32.931
						c-3.414-10.434-9.873-18.356-17.535-26.001c-7.194-7.177-17.556-11.882-26.432-4.659c-7.601,6.187-2.192,17.04,5.379,20.125
						c10.711,4.365,20.042-3.142,26.091-11.459c8.177-11.244,11.354-24.187,9.401-37.846c-2.36-16.507-2.739-31.866,1.839-48.091
						c2.428-8.604,6.076-17.115,12.156-23.776c6.516-7.138,17.642-10.667,26.374-5.524c7.573,4.461,8.768,16.403,1.07,21.134
						c-7.949,4.885-17.734-1.255-21.96-7.989c-4.589-7.313-4.995-16.849-5.259-25.212c-0.332-10.493,0.743-21.004,2.455-31.342
						c3.198-19.305,9.21-38.052,15.197-56.634C652.262,506.239,649.365,505.455,648.774,507.289L648.774,507.289z"/>
				</g>
			</g>
		</g>
		<g>
			<g>
				<g>
					<g>
						<path d="M954.951,598.496c-27.956-3.401-47.109-32.381-52.064-58.055c-5.45-28.238,12.014-59.229,31.912-78.073
							c20.641-19.548,50.408-28.163,77.997-20.31c14.532,4.138,26.3,13.829,36.39,24.725c10.071,10.876,18.435,23.474,22.87,37.698
							c13.177,42.256-15.312,86.522-57.819,95.182c-1.896,0.386-1.091,3.277,0.797,2.893c24.241-4.938,45.141-21.052,55.812-43.4
							c11.372-23.816,8.868-51.562-4.158-74.08c-13.09-22.628-34.666-42.767-60.892-47.755
							c-24.979-4.751-50.469,3.841-69.667,19.856c-22.877,19.086-40.594,52.075-36.418,82.349
							c3.831,27.782,25.955,58.408,55.241,61.971C956.869,601.729,956.847,598.727,954.951,598.496L954.951,598.496z"/>
					</g>
				</g>
				<g>
					<g>
						<path d="M954.697,601.728c2.091,6.489,3.438,13.122,3.352,19.963c-0.021,1.653,2.69,2.101,2.946,0.398
							c0.879-5.838,16.949-5.769,21.27-5.9c5.937-0.18,12.077,0.882,17.863,2.057c3.37,0.684,7.435,1.479,10.177,3.692
							c1.098,0.887,0.66,2.294,0.771,3.554c0.167,1.89-7.066,3.647-8.412,4.056c-6.456,1.962-13.362,2.056-20.025,1.452
							c-6.395-0.579-20.071-2.074-21.644-9.707c-0.39-1.895-3.281-1.091-2.893,0.797c1.502,7.292,9.704,8.993,15.898,10.487
							c8.18,1.974,16.711,2.241,25.001,0.891c3.908-0.637,15.306-2.667,15.074-7.976c-0.176-4.04-0.956-5.841-4.887-7.657
							c-7.656-3.536-17.884-4.716-26.3-4.657c-5.89,0.041-23.565,0-24.787,8.115c0.982,0.133,1.964,0.266,2.946,0.398
							c0.09-7.099-1.288-14.023-3.459-20.76C956.999,599.097,954.103,599.881,954.697,601.728L954.697,601.728z"/>
					</g>
				</g>
				<g>
					<g>
						<path d="M1014.886,622.101c0.208-6.749,0.555-13.492,0.674-20.244c0.034-1.936-2.966-1.933-3,0
							c-0.119,6.752-0.466,13.495-0.674,20.244C1011.826,624.036,1014.826,624.03,1014.886,622.101L1014.886,622.101z"/>
					</g>
				</g>
				<g>
					<g>
						<path d="M958.725,625.321c1.318,3.52,0.708,7.32,1.971,10.859c0.944,2.649,3.667,4.072,5.984,5.282
							c7.176,3.745,15.678,4.308,23.61,4.143c5.945-0.123,16.103,0.354,20.83-4.103c5.637-5.313,4.723-12.757,3.331-19.724
							c-0.379-1.896-3.271-1.092-2.893,0.797c1.534,7.681,2.116,16.336-7.136,18.729c-5.488,1.42-11.892,1.333-17.533,1.337
							c-6.45,0.005-12.816-1.076-18.695-3.771c-6.607-3.027-4.511-8.833-6.577-14.348
							C960.945,622.729,958.045,623.506,958.725,625.321L958.725,625.321z"/>
					</g>
				</g>
				<g>
					<g>
						<path d="M963.145,638.852c-0.514,6.742,2.927,12.161,7.941,16.375c4.787,4.023,11.766,8.05,17.994,9.073
							c11.929,1.961,23.473-14.674,24.886-24.76c0.265-1.891-2.625-2.706-2.893-0.797c-1.301,9.284-10.141,21.523-20.102,22.644
							c-5.068,0.569-11.316-4.035-15.433-6.624c-5.611-3.53-9.92-9.017-9.395-15.911
							C966.292,636.921,963.291,636.936,963.145,638.852L963.145,638.852z"/>
					</g>
				</g>
				<g>
					<g>
						<path d="M987.053,621.322c-1.985-24.666-4.046-49.326-6.179-73.979c-0.165-1.912-3.167-1.929-3,0
							c2.133,24.653,4.193,49.313,6.179,73.979C984.207,623.237,987.208,623.252,987.053,621.322L987.053,621.322z"/>
					</g>
				</g>
				<g>
					<g>
						<path d="M977.095,543.568c-6.865,1.822-14.568,3.555-21.696,2.58c-3.787-0.518-6.287-4.063-7.584-7.306
							c-1.976-4.94,1.823-12.86,7.881-9.188c1.203,0.73,2.438-0.461,2.203-1.693c-1.535-8.073,2.742-16.423,10.634-19.165
							c7.874-2.735,16.589,3.56,17.927,11.283c0.183,1.056,1.829,1.514,2.507,0.662c7.812-9.809,23.526-3.387,21.084,9.318
							c-0.234,1.216,1.007,2.447,2.203,1.693c4.472-2.814,6.357,2.404,7.155,4.849c1.303,3.992-3.137,3.821-5.326,4.081
							c-3.846,0.456-7.693,0.894-11.545,1.299c-8.325,0.877-16.672,1.444-25.044,1.533c-1.934,0.021-1.936,3.021,0,3
							c7.733-0.082,15.432-0.597,23.128-1.339c6.255-0.604,13.816-0.374,19.654-2.883c7.029-3.02-1.577-18.14-9.536-13.13
							c0.734,0.564,1.469,1.129,2.203,1.693c2.945-15.321-16.222-24.638-26.098-12.236c0.836,0.221,1.671,0.441,2.507,0.662
							c-1.652-9.54-11.173-15.091-20.395-13.682c-10.44,1.595-15.731,13.794-13.951,23.157c0.734-0.564,1.469-1.129,2.203-1.693
							c-9.189-5.572-15.607,6.608-11.599,14.277c6.281,12.017,21.532,7.973,32.281,5.119
							C979.76,545.965,978.967,543.071,977.095,543.568L977.095,543.568z"/>
					</g>
				</g>
			</g>
			<g>
				<g>
					<path d="M994.471,663.629c3.319,23.249,6.639,46.498,9.958,69.746c3.415,23.929,6.827,47.908,6.677,72.135
						c-0.012,1.936,2.988,1.934,3,0c0.148-23.839-3.147-47.447-6.508-70.994c-3.409-23.896-6.822-47.789-10.234-71.684
						C997.091,660.923,994.2,661.738,994.471,663.629L994.471,663.629z"/>
				</g>
			</g>
		</g>
		<g>
			<g>
				<g>
					<g>
						<path d="M1091.86,453.324c4.768-28.289-23.766-44.258-43.602-57.318c-25.161-16.566-39.72-42.335-49.749-70.099
							c-5.48-15.168-8.979-31.103-8.336-47.294c0.632-15.928,6.669-31.131,13.518-45.305c12.662-26.207,29.393-50.769,51.685-69.709
							c21.687-18.426,48.737-30.118,77.318-30.984c26.555-0.805,52.744,7.885,75.268,21.536
							c23.298,14.121,43.819,34.834,56.154,59.233c14.344,28.372,11.461,62.659,4.055,92.596
							c-8.539,34.515-29.245,62.427-57.462,83.548c-13.291,9.949-28.169,16.819-42.086,25.7
							c-11.661,7.442-22.062,20.819-17.096,35.308c0.623,1.819,3.521,1.038,2.893-0.797c-5.547-16.188,9.126-28.337,21.546-35.43
							c11.91-6.802,23.815-13.164,34.956-21.233c21.275-15.409,39.363-35.141,50.595-59.03
							c12.196-25.941,17.412-57.19,15.198-85.711c-2.157-27.787-16.385-51.618-35.392-71.334
							c-34.553-35.841-87.469-56.459-136.688-43.276c-53.743,14.396-91.809,64.985-110.828,114.816
							c-7.488,19.621-8.205,39.729-3.576,60.112c4.354,19.176,12.434,38.262,22.696,55.017
							c10.073,16.444,23.569,28.437,39.693,38.73c17.218,10.991,40.363,26.299,36.348,50.128
							C1088.648,454.419,1091.539,455.229,1091.86,453.324L1091.86,453.324z"/>
					</g>
				</g>
				<g>
					<g>
						<path d="M1089.655,455.494c12.802,2.384,26.399,0.264,39.292-0.511c6.803-0.409,13.61-0.936,20.421-1.182
							c4.736-0.171,11.106,1.076,11.792,6.926c0.462,3.946-4.154,6.879-6.998,8.503c-11.604,6.626-27.317,7.44-40.285,8.682
							c-6.944,0.664-13.37,1.074-19.763-2.235c-3.347-1.732-5.996-4.519-8.023-7.64c-2.767-4.26-3.035-12.12,3.628-13.009
							c1.889-0.252,1.913-3.255,0-3c-5.569,0.742-9.539,5.844-8.42,11.575c1.457,7.469,7.237,12.973,14.004,15.958
							c7.967,3.514,17.428,1.519,25.739,0.627c9.657-1.036,19.237-2.644,28.452-5.782c6.025-2.052,12.878-5.334,14.531-12.051
							c1.637-6.649-5.632-10.643-10.995-11.396c-4.126-0.58-8.521,0.088-12.652,0.337c-5.716,0.343-11.431,0.687-17.146,1.029
							c-10.788,0.648-22.065,2.271-32.779,0.275C1088.562,452.249,1087.755,455.141,1089.655,455.494L1089.655,455.494z"/>
					</g>
				</g>
				<g>
					<g>
						<path d="M1088.472,474.255c-2.875,8.121-5.356,19.922,5.426,22.669c5.235,1.333,11.464,0.026,16.738-0.387
							c6.907-0.539,13.799-1.25,20.667-2.163c9.838-1.307,22.403-1.991,29.655-9.683c4.624-4.904,3.869-13.919-2.178-17.152
							c-1.705-0.912-3.221,1.678-1.514,2.59c3.459,1.851,4.074,5.394,3.306,8.97c-0.964,4.488-5.568,6.931-9.485,8.391
							c-7.895,2.94-17.117,3.602-25.404,4.596c-8.13,0.975-16.303,1.583-24.471,2.139c-5.226,0.355-11.466,0.261-12.292-6.514
							c-0.5-4.106,1.09-8.831,2.444-12.658C1092.012,473.224,1089.112,472.444,1088.472,474.255L1088.472,474.255z"/>
					</g>
				</g>
				<g>
					<g>
						<path d="M1101.537,497.391c2.613,3.051,4.616,6.308,6.129,10.025c1.047,2.574,1.538,4.883,3.316,7.063
							c3.614,4.432,14.697,2.066,19.354,1.743c4.254-0.296,15.203,0.339,17.613-4.418c3.292-6.494,3.579-14.644,2.837-21.742
							c-0.199-1.904-3.201-1.924-3,0c0.64,6.119,0.174,12.003-1.466,17.942c-1.709,6.188-14.809,5.173-19.818,5.461
							c-2.557,0.147-5.119,0.189-7.68,0.217c-4.859,0.052-6.758-2.806-8.264-7.063c-1.493-4.225-4.006-7.971-6.9-11.35
							C1102.397,493.798,1100.286,495.93,1101.537,497.391L1101.537,497.391z"/>
					</g>
				</g>
				<g>
					<g>
						<path d="M1110.47,451.287c-1.795-30.406-3.701-60.871-9.299-90.861c-2.784-14.916-6.602-29.706-11.821-43.961
							c-3.685-10.061-9.92-21.869-21.412-24.161c-9.406-1.876-13.865,7.278-9.646,14.831c1.758,3.147,5.908,5.599,8.872,7.396
							c4.651,2.818,10.012,4.221,15.355,4.905c10.695,1.369,21.699-2.11,29.89-8.993c4.895-4.113,10.473-15.987,3.194-20.927
							c-2.886-1.958-6.914-2.06-9.861-0.155c-2.712,1.752-2.591,6.24-2.989,9.014c-1.489,10.353,10.009,19.324,18.864,21.262
							c9.938,2.175,19.975-4.026,23.627-13.171c2.197-5.502,1.762-17.073-6.563-15.879c-3.24,0.465-7.207,4.292-8.352,7.241
							c-2.113,5.445-0.353,10.833,3.086,15.306c7.204,9.375,20.132,10.246,30.776,7.986c9.098-1.931,22.159-7.21,23.367-17.978
							c0.353-3.147-2.583-6.454-5.634-6.718c-4.723-0.408-9.727,1.439-13.44,4.284c-4.049,3.1-6.713,8.329-9.262,12.612
							c-3.261,5.481-6.043,11.237-8.572,17.085c-4.9,11.329-8.381,23.22-11.024,35.26c-6.006,27.36-6.812,55.581-7.696,83.473
							c-0.062,1.936,2.938,1.93,3,0c1.007-31.742,2.149-63.714,10.491-94.541c3.911-14.455,9.623-28.385,17.282-41.259
							c3.799-6.384,7.507-11.649,14.967-13.624c2.595-0.688,6.338-0.957,6.889,3.428c0.243,1.936-1.825,4.271-2.953,5.61
							c-2.748,3.263-5.706,5.249-9.67,6.819c-12.92,5.119-37.849,6.569-39.611-12.747c-0.389-4.264,3.428-8.041,7.154-9.345
							c4.17-1.459,3.856,6.565,3.709,8.436c-0.618,7.815-7.276,13.157-14.47,14.807c-7.132,1.636-14.261-2.287-18.84-7.456
							c-3.419-3.86-7.623-17.769,0.834-18.256c4.098-0.236,4.976,3.588,5.073,6.727c0.124,3.937-1.777,6.843-4.407,9.575
							c-4.719,4.901-11.465,7.568-18.013,8.828c-7.909,1.521-16.317,0.049-23.461-3.523c-2.813-1.406-5.307-3.373-7.653-5.445
							c-3.612-3.19-3.599-10.075,1.53-11.711c9.512-3.035,17.227,9.609,20.509,16.53c3.861,8.143,6.272,17.148,8.647,25.81
							c10.119,36.911,12.288,75.463,14.532,113.488C1107.583,453.209,1110.584,453.221,1110.47,451.287L1110.47,451.287z"/>
					</g>
				</g>
			</g>
			<g>
				<g>
					<path d="M1125.261,517.596c-1.069,32.981-2.139,65.963-3.207,98.944c-0.472,14.556-1.438,29.407,3.597,43.346
						c3.52,9.749,12.211,18.797,23.219,18.177c8.016-0.451,14.541-8.893,13.127-16.776c-1.558-8.68-10.788-13.064-19.033-11.697
						c-10.951,1.815-14.917,11.029-16.221,21.078c-1.973,15.205-2.443,30.692-3.497,45.981
						c-2.054,29.813-4.854,59.698-13.383,88.463c-0.552,1.859,2.344,2.647,2.893,0.797c8.785-29.628,11.505-60.437,13.619-91.136
						c1.065-15.465,1.351-31.272,3.727-46.603c1.066-6.879,4.284-13.035,11.259-15.207c6.321-1.968,14.683,0.469,17.244,6.953
						c2.342,5.928-1.94,12.602-7.471,14.656c-8.16,3.031-16.01-4.063-20.063-10.309c-8.402-12.942-6.554-31.104-6.08-45.745
						c1.069-32.981,2.138-65.963,3.207-98.944c0.021-0.659,0.043-1.319,0.064-1.979
						C1128.323,515.66,1125.323,515.666,1125.261,517.596L1125.261,517.596z"/>
				</g>
			</g>
		</g>
		<g>
			<g>
				<g>
					<g>
						<path d="M470.841,595.509c-14.347-5.345-26.939-11.535-37.13-23.321c-8.991-10.398-15.536-23.965-19.095-37.175
							c-6.89-25.578,2.913-51.879,19.394-71.537c18.224-21.738,45.045-36.115,73.155-39.491
							c26.278-3.155,52.705,5.284,73.281,21.652c19.161,15.242,32.395,37.795,34.105,62.399
							c1.636,23.534-7.546,47.328-23.325,64.631c-8.046,8.822-18.133,15.681-29.261,19.976c-8.29,3.199-17.455,5.805-22.857,13.398
							c-1.182,1.661-1.833,3.683-2.276,5.646c-0.9,3.994,1.161,8.712-3.792,10.705c-2.997,1.207-6.908,0.94-10.076,1.134
							c-4.363,0.267-8.731,0.441-13.101,0.58c-7.21,0.229-17.815,2.091-22.461-4.854c-3.302-4.936-1.719-11.769-5.607-16.548
							C478.892,599.136,475.047,597.188,470.841,595.509c-1.798-0.718-2.571,2.185-0.798,2.893c3.296,1.316,6.241,2.814,8.767,5.362
							c2.543,2.564,3.007,6.479,3.653,9.848c1.052,5.488,3.114,9.933,8.418,12.305c5.107,2.283,11.719,1.366,17.11,1.24
							c7.639-0.178,15.432-0.297,23.019-1.255c3.097-0.392,7.511-2.013,8.155-5.628c0.532-2.984,0.153-5.988,0.821-8.952
							c0.757-3.357,3.275-6.024,5.916-8.051c8.163-6.263,19.336-8.065,28.274-13.112c38.875-21.949,53.872-73.743,35.047-113.493
							c-9.871-20.844-28.113-37.227-48.801-46.937c-23.522-11.041-50.071-11.834-74.725-4.167
							c-44.744,13.915-85.391,59.611-74.338,108.775c3.125,13.902,10.406,27.648,19.213,38.744
							c10.298,12.974,24.321,19.678,39.47,25.32C471.86,599.078,472.637,596.178,470.841,595.509z"/>
					</g>
				</g>
				<g>
					<g>
						<path d="M488.92,622.664c-3.773,3.438-3.737,8.451,0.067,11.844c2.046,1.824,5.332,1.764,7.877,1.975
							c5.131,0.426,10.274,0.643,15.422,0.696c5.145,0.052,10.281-0.238,15.397-0.755c2.881-0.291,6.188-0.717,8.513-2.604
							c3.902-3.167,4.922-9.2-0.437-11.512c-1.757-0.758-3.287,1.826-1.515,2.59c0.283,1.991,0.565,3.983,0.848,5.975
							c-1.357,1.112-2.88,1.82-4.568,2.123c-2.108,0.559-4.508,0.602-6.681,0.785c-3.842,0.326-7.704,0.393-11.558,0.398
							c-3.86,0.005-7.719-0.188-11.571-0.419c-1.927-0.115-3.85-0.277-5.773-0.437c-4.672-0.388-8.103-4.708-3.9-8.538
							C492.474,623.479,490.346,621.364,488.92,622.664L488.92,622.664z"/>
					</g>
				</g>
				<g>
					<g>
						<path d="M490.344,633.559c-3.234,4.064-5.953,9.039-1.534,13.279c4.59,4.405,15.308,2.832,20.867,2.517
							c8.479-0.481,17.938-1.406,26.077-3.85c6.301-1.892,3.297-8.561,0.586-12.017c-1.193-1.521-3.301,0.617-2.121,2.121
							c2.113,2.694,2.161,6.862-1.965,7.672c-1.894,0.372-3.813,0.651-5.718,0.97c-4.957,0.827-9.931,1.509-14.937,1.961
							c-3.839,0.347-7.689,0.403-11.54,0.297c-2.065-0.057-4.119-0.233-6.15-0.613c-6.047-1.132-3.768-7.296-1.444-10.216
							C493.657,634.183,491.549,632.045,490.344,633.559L490.344,633.559z"/>
					</g>
				</g>
				<g>
					<g>
						<path d="M496.055,650.665c0.958,3.442,1.917,6.884,2.875,10.326c0.552,1.983,0.817,5.434,2.375,6.991
							c1.137,1.137,3.159,1.053,4.599,1.19c3.83,0.365,7.687,0.318,11.524,0.136c2.833-0.136,12.523,0.123,13.82-3.016
							c2.35-5.684,2.326-13.418,2.5-19.474c0.056-1.936-2.944-1.931-3,0c-0.138,4.788-0.576,9.505-1.352,14.235
							c-0.425,2.595,0.065,3.61-2.831,4.168c-3.017,0.582-6.077,0.867-9.138,1.086c-3.153,0.225-13.452,1.614-14.646-2.673
							c-1.279-4.59-2.557-9.179-3.834-13.768C498.43,648.007,495.535,648.798,496.055,650.665L496.055,650.665z"/>
					</g>
				</g>
				<g>
					<g>
						<path d="M508.365,623.992c-9.247-31.369-16.836-63.191-22.734-95.357c-0.734,0.564-1.469,1.129-2.203,1.693
							c5.814,4.003,11.29,8.391,16.471,13.184c0.698,0.646,1.865,0.564,2.356-0.304c3.109-5.498,5.366-11.248,6.8-17.402
							c-0.914,0.12-1.828,0.239-2.742,0.358c2.113,3.086,4.226,6.173,6.339,9.259c1.133,1.655,2.739,5.475,4.83,6.208
							c1.604,0.562,2.443,0.338,3.692-0.836c3.274-3.076,6.204-6.637,9.272-9.92c-0.854-0.354-1.707-0.707-2.561-1.061
							c3.032,31.938-12.368,62.478-8.418,94.437c0.234,1.894,3.237,1.917,3,0c-3.948-31.945,11.451-62.489,8.418-94.437
							c-0.115-1.216-1.591-2.098-2.561-1.061c-1.766,1.89-3.532,3.779-5.298,5.669c-1.799,1.925-3.433,5.841-5.671,2.572
							c-2.817-4.115-5.634-8.23-8.451-12.345c-0.69-1.008-2.427-0.993-2.742,0.358c-1.375,5.896-3.517,11.413-6.499,16.686
							c0.786-0.102,1.571-0.202,2.356-0.304c-5.369-4.968-11.053-9.505-17.078-13.652c-1.188-0.818-2.418,0.522-2.203,1.693
							c5.898,32.167,13.487,63.989,22.734,95.357C506.019,626.641,508.914,625.852,508.365,623.992L508.365,623.992z"/>
					</g>
				</g>
				<g>
					<g>
						<path d="M566.236,459.955c16.307,8.785,27.625,24.548,30.571,42.851c0.307,1.906,3.197,1.095,2.893-0.797
							c-3.059-19.007-15.034-35.531-31.95-44.644C566.047,456.447,564.533,459.038,566.236,459.955L566.236,459.955z"/>
					</g>
				</g>
			</g>
			<g>
				<g>
					<path d="M513.461,667.715c-5.693,46.049,8.985,91.729,4.066,137.795c-0.206,1.923,2.797,1.903,3,0
						c4.918-46.066-9.759-91.746-4.066-137.795C516.698,665.798,513.695,665.82,513.461,667.715L513.461,667.715z"/>
				</g>
			</g>
		</g>
		<g>
			<g>
				<g>
					<g>
						<path d="M840.087,544.962c-7.16-0.101-14.323,0.1-21.481-0.107c-7.065-0.204-15.098-0.61-21.426-4.097
							c-6.465-3.562-7.364-9.006-6.813-15.68c0.678-8.199,0.533-16.531,0.758-24.755c0.162-5.923,0.274-11.503-2.101-17.031
							c-2.1-4.886-6.552-8.788-10.683-11.924c-10.533-7.996-20.53-15.528-28.957-25.862c-36.243-44.45-31.509-109.506,6.57-151.157
							c37.109-40.588,109.063-56.023,153.653-18.909c42.555,35.419,48.756,101.905,25.069,149.475
							c-13.499,27.109-37.211,46.932-65.572,56.888c-4.563,1.603-8.868,3.749-11.179,8.188c-1.491,2.862-1.072,6.493-0.779,9.555
							c0.441,4.614,0.887,9.225,1.26,13.845c0.656,8.148,2.432,17.633,0.054,25.61C856.227,546.494,846.058,545.078,840.087,544.962
							c-1.936-0.038-1.932,2.962,0,3c9.021,0.176,18.643,0.639,21.699-9.62c1.758-5.896,0.459-13.014,0.058-19.011
							c-0.265-3.963-0.591-7.922-0.937-11.878c-0.419-4.785-1.492-9.836-0.784-14.628c1.011-6.842,11.441-8.598,16.69-10.621
							c5.91-2.278,11.559-5.187,16.979-8.451c10.734-6.465,20.229-14.926,28.336-24.446c33.744-39.635,38.28-100.084,14.003-145.512
							c-10.935-20.459-28.27-37.092-49.929-45.664c-25.355-10.035-55.134-7.936-80.542,0.686
							c-50.145,17.015-85.13,64.96-84.432,118.124c0.253,19.325,5.99,38.359,15.422,55.139c4.837,8.605,10.918,16.499,17.748,23.608
							c7.033,7.32,15.34,12.693,23.257,18.928c3.589,2.826,6.681,6.107,8.776,10.189c2.934,5.712,1.751,13.324,1.583,19.498
							c-0.176,6.458-0.271,12.925-0.553,19.379c-0.167,3.849-0.84,7.499,0.392,11.241c2.403,7.304,11.137,10.508,17.907,11.687
							c11.319,1.972,22.896,1.191,34.325,1.352C842.022,547.989,842.02,544.989,840.087,544.962z"/>
					</g>
				</g>
				<g>
					<g>
						<path d="M790.558,494.696c22.055-3.419,44.443-2.41,66.114,2.914c1.879,0.462,2.676-2.432,0.797-2.893
							c-22.219-5.46-45.101-6.419-67.708-2.914C787.854,492.1,788.666,494.989,790.558,494.696L790.558,494.696z"/>
					</g>
				</g>
				<g>
					<g>
						<path d="M790.125,509.547c23.131,2.255,46.345,3.337,69.585,3.24c1.935-0.008,1.935-3.008,0-3
							c-23.24,0.097-46.454-0.985-69.585-3.24C788.199,506.359,788.218,509.361,790.125,509.547L790.125,509.547z"/>
					</g>
				</g>
				<g>
					<g>
						<path d="M791.925,525.867c22.914,1.717,45.883,2.235,68.851,1.556c1.93-0.058,1.936-3.058,0-3
							c-22.968,0.68-45.937,0.161-68.851-1.556C789.994,522.723,790.008,525.724,791.925,525.867L791.925,525.867z"/>
					</g>
				</g>
				<g>
					<g>
						<path d="M805.547,546.949c1.607,4.939,1.358,10.299,4,14.9c2.498,4.351,8.343,4.127,12.653,4.208
							c4.874,0.092,12.882,2.04,17.309-0.879c5.456-3.599,5.79-10.925,6.647-16.815c0.275-1.892-2.615-2.706-2.893-0.797
							c-0.691,4.749-0.762,13.13-6.021,15.336c-4.173,1.75-10.663,0.328-15.043,0.155c-5.122-0.202-9.481-0.014-11.389-5.711
							c-1.213-3.624-1.187-7.551-2.372-11.194C807.844,544.32,804.946,545.104,805.547,546.949L805.547,546.949z"/>
					</g>
				</g>
				<g>
					<g>
						<path d="M818.994,491.264c5.731-15.438,10.917-31.07,16.246-46.649c5.484-16.03,12.013-31.785,16.791-48.042
							c2.75-9.357,8.677-27.301-2.429-33.619c-3.973-2.26-9.805-0.648-13.104,2.093c-5.2,4.32-6.962,10.787-8.479,17.116
							c0.914-0.119,1.827-0.239,2.741-0.358c-4.276-6.412-11.288-21.135-21.772-15.132c-10.154,5.814,0.108,23.377,3.354,30.771
							c13.252,30.194,22.365,62.153,27.492,94.71c0.3,1.907,3.19,1.095,2.893-0.797c-3.987-25.32-10.431-50.141-19.245-74.209
							c-4.199-11.467-9.773-22.439-13.733-33.973c-1.038-3.024-1.811-6.195-1.97-9.394c-0.244-4.92,4.781-5.458,8.17-4.728
							c6.266,1.351,9.044,9.502,12.223,14.267c0.685,1.026,2.421,0.977,2.741-0.358c1.458-6.086,3.039-12.612,8.537-16.323
							c3.167-2.138,7.419-2.316,10.47,0.111c2.721,2.165,2.968,6.325,2.979,9.484c0.048,12.95-5.8,26.644-10.216,38.593
							c-9.265,25.072-17.279,50.583-26.582,75.641C815.427,492.284,818.327,493.061,818.994,491.264L818.994,491.264z"/>
					</g>
				</g>
			</g>
			<g>
				<g>
					<path d="M823.331,566.01c-5.889,21.149-8.667,42.95-8.352,64.9c0.328,22.766,5.255,44.315,10.823,66.255
						c4.683,18.452,7.346,38.043,6.314,57.108c-0.929,17.173-4.706,34.214-6.985,51.236c-0.256,1.913,2.747,1.889,3,0
						c2.233-16.679,5.726-33.288,6.914-50.09c1.22-17.24-1.073-35.027-4.653-51.87c-2.308-10.856-5.639-21.465-7.934-32.327
						c-2.414-11.43-3.747-23.062-4.305-34.723c-1.124-23.482,1.771-47.067,8.069-69.693
						C826.743,564.939,823.849,564.148,823.331,566.01L823.331,566.01z"/>
				</g>
			</g>
		</g>
		<g>
			<g>
				<g>
					<g>
						<path d="M298.303,703.974c-0.515-11.409-6.394-21.158-15.064-28.349c-4.942-4.098-10.436-7.25-15.124-11.719
							c-5.023-4.789-9.101-10.459-12.424-16.53c-14.725-26.897-6.027-58.091,8.867-82.81c8.111-13.461,18.442-23.399,33.34-28.844
							c13.569-4.959,28.67-6.117,42.98-4.884c15.11,1.303,28.898,7.002,39.609,17.848c9.938,10.063,16.638,23.247,19.542,37.022
							c5.153,24.444-5.643,47.011-21.143,65.271c-7.741,9.119-16.608,17.259-25.609,25.108c-3.412,2.976-6.951,5.704-7.832,10.351
							c-0.888,4.685,1.177,10.035,2.615,14.389c0.604,1.828,3.501,1.045,2.893-0.797c-1.118-3.386-2.165-6.756-2.584-10.312
							c-0.554-4.696,2.5-7.57,5.724-10.38c5.634-4.908,11.185-9.892,16.514-15.131c9.492-9.33,18.159-19.63,24.624-31.306
							c12.37-22.343,11.482-48.525-0.884-70.636c-6.112-10.93-15.028-20.517-25.966-26.672c-11.323-6.372-24.923-8.168-37.719-8.203
							c-12.937-0.035-26.595,2.091-38.471,7.365c-12.278,5.454-21.104,14.187-28.378,25.346
							c-15.38,23.596-24.493,53.01-14.479,80.452c4.247,11.639,11.885,21.769,21.358,29.659c5.316,4.429,11.278,7.654,15.983,12.838
							c5.205,5.735,8.278,13.211,8.626,20.921C295.39,705.9,298.391,705.908,298.303,703.974L298.303,703.974z"/>
					</g>
				</g>
				<g>
					<g>
						<path d="M297.57,704.209c-4.181,1.525-6.594,4.729-2.706,8.292c3.731,3.42,10.514,3.233,15.211,3.698
							c13.873,1.373,29.276,1.7,42.796-2.428c2.785-0.851,7.763-2.976,7.51-6.67c-0.362-5.291-5.591-6.858-10.111-7.181
							c-4.064-0.289-8.356,0.474-12.41,0.762c-5.006,0.356-10.015,0.68-15.021,1.028
							C314.575,702.287,305.634,702.218,297.57,704.209c-1.877,0.464-1.081,3.356,0.798,2.893
							c10.724-2.648,22.861-2.288,33.859-3.031c5.469-0.369,10.936-0.875,16.41-1.146c2.248-0.111,11.835,1.319,7.903,5.663
							c-1.337,1.477-3.726,2.065-5.551,2.622c-8.111,2.478-17.251,2.621-25.644,2.797c-5.116,0.106-10.191-0.222-15.27-0.807
							c-2.38-0.274-4.76-0.435-7.132-0.799c-0.84-0.14-1.672-0.318-2.496-0.536c-0.772-0.185-7.562-2.762-2.08-4.763
							C300.169,706.444,299.392,703.544,297.57,704.209z"/>
					</g>
				</g>
				<g>
					<g>
						<path d="M297.289,712.5c-3.077,1.328-6.059,2.86-6.163,6.508c-0.091,3.215,4.685,4.318,6.925,4.729
							c12.463,2.29,26.138,1.685,38.746,1.286c7.361-0.232,16.229,0.579,23.131-2.481c7.224-3.202,1.113-10.563-3.033-13.102
							c-1.654-1.014-3.16,1.582-1.514,2.59c2.649,1.623,7.378,5.475,3.032,7.922c-1.936,1.09-4.616,1.262-6.76,1.47
							c-4.912,0.476-9.93,0.428-14.856,0.602c-7.449,0.264-14.9,0.212-22.347-0.066c-3.69-0.138-7.374-0.385-11.055-0.676
							c-1.968-0.155-3.923-0.322-5.868-0.68c-2.069-0.125-2.557-1.526-1.461-4.203c0.879-0.506,1.792-0.941,2.738-1.309
							C300.575,714.325,299.046,711.741,297.289,712.5L297.289,712.5z"/>
					</g>
				</g>
				<g>
					<g>
						<path d="M297.295,721.893c-5.396,4.111-1.884,9.719,3.841,11.077c9.917,2.354,21.231,0.722,31.255,0.173
							c9.319-0.509,19.288,1.021,28.377-1.646c6.086-1.785,8.062-8.819,2.15-11.977c-1.705-0.911-3.221,1.679-1.514,2.59
							c6.127,3.274-1.395,6.558-3.686,7.076c-2.109,0.478-4.317,0.567-6.472,0.669c-6.282,0.297-12.574,0.027-18.856,0.287
							c-5.798,0.241-11.544,0.843-17.356,0.756c-2.517-0.038-5.035-0.165-7.547-0.303c-1.538-0.084-3.068-0.229-4.599-0.391
							c-1.662-0.175-8.462-2.384-4.08-5.723C300.326,723.327,298.835,720.719,297.295,721.893L297.295,721.893z"/>
					</g>
				</g>
				<g>
					<g>
						<path d="M301.47,730.979c-4.464,1.614-6.067,9.288-1.554,11.921c4.074,2.376,8.084,2.067,12.677,1.973
							c6.542-0.134,13.081-0.452,19.618-0.755c6.538-0.303,13.075-0.59,19.618-0.755c4.875-0.122,9.041-0.123,13.604-2.024
							c5.531-2.306,2.836-10.442-1.549-12.329c-1.757-0.756-3.287,1.827-1.515,2.59c3.495,1.504,4.269,6.215,0.076,7.678
							c-2.842,0.991-5.664,1-8.636,1.046c-6.551,0.101-13.098,0.405-19.643,0.705c-6.531,0.299-13.062,0.604-19.597,0.795
							c-3.218,0.095-6.676,0.487-9.855-0.112c-3.285-0.619-7.006-6.189-2.445-7.839C304.072,733.22,303.293,730.319,301.47,730.979
							L301.47,730.979z"/>
					</g>
				</g>
				<g>
					<g>
						<path d="M317.381,702.287c-1.455-15.221-4.457-30.167-8.972-44.776c-1.968-6.366-4.205-12.714-6.912-18.807
							c-1.828-4.115-4.987-8.027-9.565-8.989c-3.267-0.688-5.822,1.373-7.676,3.778c-3.239,4.201-1.201,7.885,2.362,10.932
							c8.265,7.067,21.36,6.735,30.267,1.313c6.11-3.721,12.116-13.758,6.016-20.084c-2.373-2.46-6.878-1.171-9.506-0.028
							c-4,1.737-3.039,6.227-1.763,9.429c4.21,10.568,17.325,10.804,26.846,10.76c4.088-0.02,8.348-0.555,11.436-3.442
							c2.514-2.352,0.9-7.095-0.224-9.671c-1.952-4.472-7.631-5.593-11.724-3.69c-5.357,2.489-7.285,10.647-8.139,15.776
							c-3.11,18.677-3.115,38.404-3.121,57.29c0,1.935,3,1.935,3,0c0.003-11.563,0.365-23.112,1.083-34.652
							c0.608-9.771,0.253-21.228,4.292-30.345c0.841-1.897,2.146-3.479,3.643-4.894c4.914-4.645,8.911,1.967,9.4,5.647
							c0.75,5.645-9.08,5.015-12.464,4.967c-5.418-0.076-10.493-0.214-15.437-2.752c-4.984-2.559-10.663-12.252-1.307-12.728
							c3.666-0.187,3.556,4.501,3.275,6.575c-0.359,2.652-2.09,4.943-3.848,6.836c-3.836,4.132-9.694,5.815-15.142,6.037
							c-5.572,0.227-11.296-1.759-15.517-5.368c-3.024-2.586-1.842-6.192,1.047-8.239c2.491-1.765,5.407,0.558,7.103,2.19
							c3.926,3.78,5.494,10.74,7.27,15.708c1.924,5.384,3.568,10.865,5.063,16.382c3.091,11.405,5.093,23.09,6.216,34.846
							C314.563,704.195,317.565,704.213,317.381,702.287L317.381,702.287z"/>
					</g>
				</g>
			</g>
			<g>
				<g>
					<path d="M327.475,741.977c-1.504,10.528,0.552,19.604,4.225,29.435c4.659,12.471-1.563,23.022-8.218,33.342
						c-1.052,1.631,1.546,3.134,2.591,1.514c5.608-8.696,11.442-18.04,10.328-28.813c-0.533-5.148-3.151-9.979-4.695-14.863
						c-2.018-6.384-2.279-13.226-1.338-19.816C330.637,740.883,327.747,740.067,327.475,741.977L327.475,741.977z"/>
				</g>
			</g>
		</g>
	</g>
</g>
</svg>
