<?xml version="1.0" encoding="utf-8"?>
<!-- Generator: Adobe Illustrator 16.0.0, SVG Export Plug-In . SVG Version: 6.00 Build 0)  -->
<!DOCTYPE svg PUBLIC "-//W3C//DTD SVG 1.1//EN" "http://www.w3.org/Graphics/SVG/1.1/DTD/svg11.dtd">
<svg version="1.1" id="Layer_1" xmlns="http://www.w3.org/2000/svg" xmlns:xlink="http://www.w3.org/1999/xlink" x="0px" y="0px"
	 width="1280px" height="800px" viewBox="0 0 1280 800" enable-background="new 0 0 1280 800" xml:space="preserve">
<g>
	<g>
		<path fill="#E3CDC9" d="M196.482,723.305c11.6,1.273,22.212,3.624,31.941,6.742l-0.008-0.016c0.143,0.049,0.28,0.09,0.421,0.14
			c0.384,0.123,0.763,0.255,1.145,0.382c57.969,19.817,84.591,16.1,107.384,9.394c61.552-18.117,98.047-96.106,197.733-81.01
			c42.285,6.402,76.304,15.109,102.817,32.823c-0.007-0.017-0.036-0.078-0.036-0.078c0.185,0.152,0.371,0.275,0.555,0.423
			c3.803,2.556,7.509,5.157,11.013,7.836c51.852,32.433,103.5-9.845,118.332-19.423c1.089-0.756,2.225-6.768,3.327-7.52
			c0.597-0.424,0.927-0.674,0.927-0.674l0.004,0.053c64.966-43.88,168.3-88.327,267.916-77.413
			C1211.118,613.713,1280,799.732,1280,799.732H722.2H676.68H322.065H243.82H0.975C20.953,755.745,100.869,712.835,196.482,723.305z
			"/>
		<g>
			<g>
				<g>
					<path fill="#8155FF" d="M66.687,250.277h100.845c2.346,0,4.249-1.823,4.249-4.072v-26.866c0-2.249-1.903-4.071-4.249-4.071
						H66.687c-2.347,0-4.25,1.822-4.25,4.071v26.866C62.438,248.454,64.34,250.277,66.687,250.277z"/>
					<g>
						
							<line fill="none" stroke="#FFFFFF" stroke-width="0.6238" stroke-miterlimit="10" x1="83.851" y1="228.863" x2="155.476" y2="228.863"/>
						
							<line fill="none" stroke="#FFFFFF" stroke-width="0.6238" stroke-miterlimit="10" x1="83.851" y1="236.682" x2="104.933" y2="236.682"/>
					</g>
				</g>
				<polygon fill="#8155FF" points="158.763,245.618 158.763,261.451 137.702,245.618 				"/>
			</g>
			<g>
				<path fill="none" stroke="#FFFFFF" stroke-width="1.0888" stroke-miterlimit="10" d="M1261.588,404.305
					c0,6.573-5.485,11.902-12.251,11.902c-6.762,0-12.246-5.329-12.246-11.902c0-6.575,5.484-11.904,12.246-11.904
					C1256.103,392.4,1261.588,397.73,1261.588,404.305z"/>
				<path fill="none" stroke="#FFFFFF" stroke-width="1.0888" stroke-miterlimit="10" d="M34.619,479.353
					c0,9.389-7.835,17.003-17.5,17.003c-9.664,0-17.499-7.614-17.499-17.003c0-9.394,7.835-17.007,17.499-17.007
					C26.784,462.346,34.619,469.959,34.619,479.353z"/>
				
					<ellipse fill="none" stroke="#FFFFFF" stroke-width="1.0888" stroke-miterlimit="10" cx="676.424" cy="125.068" rx="6.664" ry="6.477"/>
			</g>
			<g>
				
					<path fill="none" stroke="#FAFAFA" stroke-width="1.103" stroke-linecap="round" stroke-linejoin="round" stroke-miterlimit="10" d="
					M109.271,90.298h285.581c0,0-1.379-10.87-33.111-19.565c-31.73-8.696-54.495,13.586-90.364,0
					c-35.871-13.586-54.895-33.08-101.112-22.211C124.047,59.391,109.271,90.298,109.271,90.298z"/>
				
					<path fill="none" stroke="#FAFAFA" stroke-width="1.103" stroke-linecap="round" stroke-linejoin="round" stroke-miterlimit="10" d="
					M1014.536,186.263h147.684c0,0-0.712-6.836-17.122-12.306c-16.409-5.47-28.18,8.546-46.733,0
					c-18.549-8.547-28.386-20.808-52.287-13.972C1022.178,166.823,1014.536,186.263,1014.536,186.263z"/>
				<path fill="#FDB9B9" d="M936.882,46.388c0,25.62-21.675,46.388-48.409,46.388c-26.731,0-48.406-20.768-48.406-46.388
					C840.066,20.769,861.741,0,888.473,0C915.207,0,936.882,20.769,936.882,46.388z"/>
			</g>
		</g>
	</g>
	<g>
		<g>
			<g>
				<rect x="359.046" y="314.164" fill="#FFFFFF" width="502.537" height="483.106"/>
				<path fill="#8155FF" d="M861.583,238.17v75.994H359.046V238.17c0-15.097,12.771-27.335,28.526-27.335h445.483
					C848.81,210.834,861.583,223.073,861.583,238.17z"/>
				<g>
					<g>
						<ellipse fill="#2B4183" cx="783.696" cy="258.021" rx="23.636" ry="22.653"/>
						<path fill="#FFCB2D" d="M783.693,266.528L783.693,266.528c7.486,0,13.55-5.813,13.55-12.983v-58.648
							c0-7.17-6.063-12.982-13.55-12.982l0,0c-7.482,0-13.545,5.813-13.545,12.982v58.648
							C770.148,260.716,776.211,266.528,783.693,266.528z"/>
					</g>
					<g>
						<ellipse fill="#2B4183" cx="616.848" cy="258.021" rx="23.639" ry="22.653"/>
						<path fill="#FFCB2D" d="M616.849,266.528L616.849,266.528c7.482,0,13.549-5.813,13.549-12.983v-58.648
							c0-7.17-6.066-12.982-13.549-12.982l0,0c-7.482,0-13.549,5.813-13.549,12.982v58.648
							C603.3,260.716,609.366,266.528,616.849,266.528z"/>
					</g>
					<g>
						<ellipse fill="#2B4183" cx="450.001" cy="258.021" rx="23.639" ry="22.653"/>
						<path fill="#FFCB2D" d="M450.001,266.528L450.001,266.528c7.483,0,13.549-5.813,13.549-12.983v-58.648
							c0-7.17-6.066-12.982-13.549-12.982l0,0c-7.482,0-13.548,5.813-13.548,12.982v58.648
							C436.453,260.716,442.52,266.528,450.001,266.528z"/>
					</g>
				</g>
			</g>
			<g>
				<g>
					
						<rect x="691.769" y="391.801" fill="none" stroke="#F0E0DF" stroke-width="2.2132" stroke-miterlimit="10" width="95.552" height="91.566"/>
					
						<rect x="564.642" y="391.801" fill="none" stroke="#F0E0DF" stroke-width="2.2132" stroke-miterlimit="10" width="95.551" height="91.566"/>
					
						<rect x="437.514" y="391.801" fill="none" stroke="#F0E0DF" stroke-width="2.2132" stroke-miterlimit="10" width="95.552" height="91.566"/>
				</g>
				<g>
					
						<rect x="691.769" y="508.029" fill="none" stroke="#F0E0DF" stroke-width="2.2132" stroke-miterlimit="10" width="95.552" height="91.565"/>
					
						<rect x="564.642" y="508.029" fill="none" stroke="#F0E0DF" stroke-width="2.2132" stroke-miterlimit="10" width="95.551" height="91.565"/>
					<rect x="437.514" y="508.029" fill="#F88AA0" width="95.552" height="91.565"/>
					<g>
						
							<line fill="none" stroke="#FFFFFF" stroke-width="2.0174" stroke-miterlimit="10" x1="472.044" y1="540.729" x2="498.536" y2="566.895"/>
						
							<line fill="none" stroke="#FFFFFF" stroke-width="2.0174" stroke-miterlimit="10" x1="498.536" y1="540.729" x2="472.044" y2="566.895"/>
					</g>
				</g>
				<g>
					
						<rect x="691.769" y="624.261" fill="none" stroke="#F0E0DF" stroke-width="2.2132" stroke-miterlimit="10" width="95.552" height="91.565"/>
					
						<rect x="564.642" y="624.261" fill="none" stroke="#F0E0DF" stroke-width="2.2132" stroke-miterlimit="10" width="95.551" height="91.565"/>
					
						<rect x="437.514" y="624.261" fill="none" stroke="#F0E0DF" stroke-width="2.2132" stroke-miterlimit="10" width="95.552" height="91.565"/>
				</g>
			</g>
		</g>
		<g>
			<g>
				<g>
					<rect x="806.458" y="478.934" fill="#FFA80A" width="46.502" height="29.347"/>
					<path fill="#FFCB2D" d="M860.121,486.543h-60.823c-6.926,0-12.543-5.379-12.543-12.015l0,0c0-6.64,5.617-12.02,12.543-12.02
						h60.823c6.925,0,12.541,5.38,12.541,12.02l0,0C872.662,481.164,867.046,486.543,860.121,486.543z"/>
				</g>
				<g>
					<polygon fill="#FFA80A" points="735.451,541.177 709.235,566.299 690.744,548.581 716.96,523.454 					"/>
					<path fill="#FFCB2D" d="M725.229,522.419l-36.624,35.095c-3.691,3.538-9.676,3.538-13.368,0l0,0
						c-3.689-3.537-3.689-9.27,0-12.808l36.625-35.095c3.689-3.538,9.677-3.538,13.367,0l0,0
						C728.92,513.145,728.92,518.881,725.229,522.419z"/>
				</g>
			</g>
			<g>
				<g>
					<path fill="#F67B91" d="M986.327,646.244c0,83.179-70.365,150.611-157.164,150.611c-86.806,0-157.168-67.433-157.168-150.611
						s70.362-150.607,157.168-150.607C915.962,495.637,986.327,563.065,986.327,646.244z"/>
					<path fill="#F88AA0" d="M977.871,646.244c0,78.704-66.579,142.509-148.708,142.509c-82.136,0-148.715-63.805-148.715-142.509
						s66.579-142.509,148.715-142.509C911.292,503.735,977.871,567.54,977.871,646.244z"/>
					<path fill="#F6F6F6" d="M961.079,646.244c0,69.816-59.061,126.414-131.916,126.414c-72.86,0-131.921-56.598-131.921-126.414
						S756.303,519.83,829.163,519.83C902.019,519.83,961.079,576.428,961.079,646.244z"/>
				</g>
				<g opacity="0.71">
					<defs>
						<path id="SVGID_1_" opacity="0.71" d="M961.079,646.244c0,69.816-59.061,126.414-131.916,126.414
							c-72.86,0-131.921-56.598-131.921-126.414S756.303,519.83,829.163,519.83C902.019,519.83,961.079,576.428,961.079,646.244z"/>
					</defs>
					<clipPath id="SVGID_2_">
						<use xlink:href="#SVGID_1_"  overflow="visible"/>
					</clipPath>
					<polygon clip-path="url(#SVGID_2_)" fill="#FFFFFF" points="684.838,546.23 884.789,843.148 975.122,768.701 777.292,502.95 
											"/>
					<polygon clip-path="url(#SVGID_2_)" fill="#FFFFFF" points="791.395,474.705 991.343,771.622 1002.967,734.398 
						805.137,468.648 					"/>
				</g>
				<g>
					<g>
						<g>
							<path fill="#8054FF" d="M829.818,548.313c-1.835,0-3.318-1.421-3.318-3.18v-7.462c0-1.759,1.483-3.181,3.318-3.181
								c1.831,0,3.318,1.422,3.318,3.181v7.462C833.137,546.893,831.649,548.313,829.818,548.313z"/>
							<path fill="#8054FF" d="M829.818,759.529c-1.835,0-3.318-1.422-3.318-3.18v-7.467c0-1.754,1.483-3.18,3.318-3.18
								c1.831,0,3.318,1.426,3.318,3.18v7.467C833.137,758.107,831.649,759.529,829.818,759.529z"/>
						</g>
						<g>
							<path fill="#8054FF" d="M754.647,578.153c-0.85,0-1.698-0.308-2.35-0.933l-5.51-5.275c-1.296-1.241-1.296-3.259,0-4.5
								c1.299-1.245,3.396-1.245,4.694,0l5.511,5.28c1.294,1.241,1.294,3.254,0,4.495
								C756.345,577.846,755.497,578.153,754.647,578.153z"/>
							<path fill="#8054FF" d="M910.499,727.508c-0.849,0-1.697-0.313-2.345-0.933l-5.511-5.28c-1.294-1.24-1.294-3.258,0-4.499
								c1.296-1.241,3.396-1.241,4.691,0l5.51,5.28c1.3,1.24,1.3,3.258,0,4.499C912.197,727.195,911.349,727.508,910.499,727.508z"
								/>
						</g>
						<g>
							<path fill="#8054FF" d="M749.138,727.508c-0.849,0-1.698-0.313-2.35-0.933c-1.296-1.241-1.296-3.259,0-4.499l5.51-5.28
								c1.3-1.241,3.396-1.241,4.695,0c1.294,1.241,1.294,3.259,0,4.499l-5.511,5.28
								C750.835,727.195,749.986,727.508,749.138,727.508z"/>
							<path fill="#8054FF" d="M904.989,578.153c-0.849,0-1.698-0.308-2.346-0.933c-1.294-1.241-1.294-3.254,0-4.495l5.511-5.28
								c1.294-1.245,3.396-1.245,4.69,0c1.3,1.241,1.3,3.259,0,4.5l-5.51,5.275C906.687,577.846,905.839,578.153,904.989,578.153z"
								/>
						</g>
						<g>
							<path fill="#8054FF" d="M723.509,650.188h-7.792c-1.833,0-3.316-1.422-3.316-3.181c0-1.754,1.483-3.176,3.316-3.176h7.792
								c1.831,0,3.319,1.422,3.319,3.176C726.828,648.767,725.34,650.188,723.509,650.188z"/>
							<path fill="#8054FF" d="M943.919,650.188h-7.791c-1.831,0-3.319-1.422-3.319-3.181c0-1.754,1.488-3.176,3.319-3.176h7.791
								c1.831,0,3.319,1.422,3.319,3.176C947.238,648.767,945.75,650.188,943.919,650.188z"/>
						</g>
					</g>
					<g>
						<path fill="#8054FF" d="M837.747,645.809H821.89v-65.876c0-4.195,3.552-7.598,7.929-7.598l0,0
							c4.378,0,7.929,3.402,7.929,7.598V645.809z"/>
						<path fill="#2B4183" d="M848.004,645.809c0,9.627-8.144,17.431-18.186,17.431c-10.046,0-18.189-7.804-18.189-17.431
							c0-9.623,8.144-17.427,18.189-17.427C839.86,628.382,848.004,636.186,848.004,645.809z"/>
					</g>
				</g>
			</g>
		</g>
	</g>
	<g>
		<g>
			<g>
				<g>
					<path fill="#7041FD" d="M287.242,489.21l28.724,121.38c1.759,11.571-2.898,23.188-12.14,30.271l-85.754,64.261l1.585-59.174
						l42.832-33.497l-44.417-126.582L287.242,489.21z"/>
				</g>
				<g>
					<polygon fill="#FA849B" points="176.272,705.615 217.565,684.914 201.258,662.865 156.413,686.233 170.724,703.622 					"/>
					<g>
						<path fill="#181F42" d="M166.446,676.959c0,0,6.978,24.506,27.066,23.138l7.746,58.385l-59.279-72.035L166.446,676.959z"/>
						<polygon fill="#FFFFFF" points="194.158,763.848 134.879,691.813 141.979,686.446 201.258,758.481 						"/>
						
							<path fill="none" stroke="#FFFFFF" stroke-width="1.5042" stroke-linecap="round" stroke-linejoin="round" stroke-miterlimit="10" d="
							M194.525,707.731c0,0-4.631-1.422-11.548-1.113"/>
						
							<path fill="none" stroke="#FFFFFF" stroke-width="1.5042" stroke-linecap="round" stroke-linejoin="round" stroke-miterlimit="10" d="
							M196.242,716.278c0,0-4.631-1.422-11.548-1.118"/>
						
							<path fill="none" stroke="#FFFFFF" stroke-width="1.5042" stroke-linecap="round" stroke-linejoin="round" stroke-miterlimit="10" d="
							M197.959,724.825c0,0-4.631-1.426-11.548-1.118"/>
					</g>
				</g>
			</g>
			<g>
				<g>
					<polygon fill="#FA849B" points="213.128,777.129 217.306,733.24 189.141,731.855 184.95,780.07 208.06,780.07 					"/>
					<g>
						<path fill="#181F42" d="M181.347,766.773c0,0,24.401,9.928,35.719-6.036l52.639,30.325h-95.731L181.347,766.773z"/>
						<rect x="173.974" y="791.063" fill="#FFFFFF" width="95.731" height="8.666"/>
						
							<path fill="none" stroke="#FFFFFF" stroke-width="1.5042" stroke-linecap="round" stroke-linejoin="round" stroke-miterlimit="10" d="
							M223.951,764.703c0,0-4.033,2.604-8.065,8"/>
						
							<path fill="none" stroke="#FFFFFF" stroke-width="1.5042" stroke-linecap="round" stroke-linejoin="round" stroke-miterlimit="10" d="
							M232.016,768.701c0,0-4.032,2.604-8.065,8"/>
						
							<path fill="none" stroke="#FFFFFF" stroke-width="1.5042" stroke-linecap="round" stroke-linejoin="round" stroke-miterlimit="10" d="
							M240.082,772.703c0,0-4.033,2.601-8.066,7.996"/>
					</g>
				</g>
				<g>
					<g>
						<g>
							<polygon fill="#8155FF" points="192.41,486.235 179.49,742.234 228.497,742.234 264.19,487.073 							"/>
						</g>
					</g>
					<polygon fill="#8155FF" points="287.242,489.21 287.242,489.21 257.54,533.83 251.334,488.084 					"/>
				</g>
			</g>
		</g>
		<g>
			<g>
				<polygon fill="#FA849B" points="414.604,445.836 385.336,448.032 390.57,419.857 421.142,422.323 				"/>
				<g>
					<g>
						<g>
							<g>
								<path fill="#FA849B" d="M439.238,444.474c-8.605,7.065-21.56,6.108-28.934-2.139c-7.373-8.245-6.375-20.659,2.231-27.725
									c8.604-7.066,21.558-6.108,28.932,2.137C448.84,424.994,447.843,437.406,439.238,444.474z"/>
								<path fill="#FA849B" d="M426.945,409.917c0,0-3.724-8.225-12.413-2.131c-8.688,6.092-16.397,18.565-4.228,34.549
									L426.945,409.917z"/>
							</g>
						</g>
					</g>
					<path fill="#FA849B" d="M426.945,409.809l23.571-5.682c1.952-0.609,4.13,0.403,4.801,2.232l0,0
						c0.581,1.586-0.168,3.277-1.769,3.992l-23.941,10.262L426.945,409.809z"/>
				</g>
				<g>
					<path fill="#FFCD2E" d="M304.086,370.614l38.663,58.624c5.47,9.396,2.424,21.249-6.976,27.136l0,0
						c-9.858,6.174-23.069,3.546-29.552-5.874l-42.62-56.32c-6.194-9.004-4.927-20.938,3.032-28.563l0,0
						C277.755,354.962,296.424,357.453,304.086,370.614z"/>
					<polygon fill="#F2BB19" points="291.988,431.941 294.269,399.848 302.574,445.947 					"/>
				</g>
				<g>
					<path fill="#FFCD2E" d="M322.679,423.37l85.122-9.583l-0.268,37.253l-79.165,9.775c-12.489,2.319-23.979-7.106-23.513-19.29
						l0,0C305.218,432.053,312.833,424.295,322.679,423.37z"/>
				</g>
			</g>
			<g>
				<g>
					<g>
						<path fill="#FA849B" d="M175.364,533.817c0,0,9.496,0.731,7.944-9.669c-1.552-10.399-9.555-23.01-30.372-20.188
							L175.364,533.817z"/>
						<rect x="106.673" y="525.624" fill="#FFCD2E" width="95.551" height="91.565"/>
						<rect x="111.09" y="525.624" fill="#FFCD2E" width="95.551" height="91.565"/>
						<path fill="#FA849B" d="M137.076,527.852c-2.504-10.795,4.597-21.49,15.861-23.891c11.264-2.399,22.424,4.405,24.929,15.199
							c2.504,10.795-4.597,21.49-15.861,23.891C150.741,545.45,139.58,538.646,137.076,527.852z"/>
					</g>
					<path fill="#FFCD2E" d="M177.868,428.436l-0.938,82.129l-37.545-1.693l-0.999-79.805
						c-0.809-12.166,10.413-21.885,22.963-19.889l0,0C171.108,410.73,178.166,418.959,177.868,428.436z"/>
				</g>
				<g>
					<path fill="#FFCD2E" d="M226.084,394.047l-51.791,48.438c-8.454,7.084-21.184,6.693-29.149-0.892l0,0
						c-8.353-7.956-8.42-20.887-0.152-28.922l48.615-51.668c7.9-7.679,20.347-8.975,29.784-3.102l0,0
						C236.582,366.11,237.924,384.127,226.084,394.047z"/>
				</g>
			</g>
			<g>
				<g>
					<path fill="#FFCD2E" d="M283.881,358.89l-73.646-4.641c-6.64-0.418-18.481,11.137-17.783,17.479l-0.042,114.507l94.832,2.975
						l9.631-116.233C297.313,365.66,291.514,359.37,283.881,358.89z"/>
				</g>
				<polygon fill="#F2BB19" points="192.41,425.542 213.798,405.538 192.419,459.715 				"/>
			</g>
		</g>
		<g>
			<path fill="#E6728C" d="M271.877,311.508c-0.472,5.311,3.495,9.991,8.861,10.453c5.367,0.462,10.101-3.469,10.574-8.78
				c0.473-5.311-3.495-9.99-8.861-10.452S272.351,306.197,271.877,311.508z"/>
			<path fill="#FA849B" d="M266.215,334.164l-0.45,23.055c-0.141,8.097-5.259,12.325-13.313,12.102l0,0
				c-6.875-0.19-14.363-3.521-13.923-10.653l2.472-36.243L266.215,334.164z"/>
			<path fill="#312725" d="M265.97,349.494c0,0-19.629,1.233-25.3-20.021c-1.786-6.695,25.639,2.328,25.639,2.328L265.97,349.494z"
				/>
			<path fill="#F8879D" d="M258.865,340.749L258.865,340.749c13.737,0.275,25.282-10.236,25.9-21.331l1.16-23.216
				c0.774-13.905-9.738-25.898-23.756-27.104l0,0c-14.352-1.236-29.525,9.061-30.79,23.262l-0.676,18.101
				C230.076,326.758,242.447,339.335,258.865,340.749z"/>
			<g>
				
					<polyline fill="none" stroke="#312725" stroke-width="0.5974" stroke-linecap="round" stroke-linejoin="round" stroke-miterlimit="10" points="
					270.475,309.244 271.116,316.833 267.717,316.898 				"/>
				<path fill="#312725" d="M255.575,293.873c0,0,5.636-0.362,5.649,1.907c0,0-0.032,1.535-4.948,1.754
					c-4.915,0.221-6.185-0.157-6.606-1.605C249.247,294.479,252.935,293.841,255.575,293.873z"/>
				<path fill="#312725" d="M279.089,299.197c0,0-4.637-0.554-5.055,1.569c0,0-0.248,1.437,3.813,1.833
					c4.061,0.395,5.394-0.094,5.799-1.251C284.106,300.036,281.296,299.269,279.089,299.197z"/>
				<path fill="#312725" d="M275.544,307.824c-0.066,1.29,0.936,2.388,2.238,2.452c1.305,0.064,2.414-0.929,2.482-2.218
					c0.066-1.29-0.936-2.387-2.239-2.452C276.722,305.541,275.611,306.535,275.544,307.824z"/>
				<path fill="#312725" d="M254.861,306.789c-0.067,1.291,0.936,2.388,2.238,2.452c1.304,0.065,2.414-0.929,2.48-2.218
					c0.067-1.29-0.936-2.387-2.238-2.452C256.038,304.507,254.927,305.5,254.861,306.789z"/>
				
					<path fill="none" stroke="#312725" stroke-width="0.5974" stroke-linecap="round" stroke-linejoin="round" stroke-miterlimit="10" d="
					M260.553,320.177c0.13,0.372,3.364,3.595,7.891,2.479"/>
			</g>
			<path fill="#312725" d="M280.268,257.822c-5.265-2.17-18.695-4.555-21.658,6.826c-13.367-0.978-34.634-0.74-36.77,10.365
				c-3.139,16.313,8.946,32.479,8.946,32.479l3.399,1.658c0,0,8.633-4.313,6.402-23.828c0,0,30.889,7.136,45.379-0.373
				C300.455,277.439,296.072,264.336,280.268,257.822z"/>
			<g>
				<path fill="#F8879D" d="M218.083,309.774c-0.467,5.26,3.46,9.894,8.775,10.351s10.002-3.435,10.471-8.695
					c0.468-5.258-3.46-9.892-8.775-10.351C223.24,300.623,218.552,304.515,218.083,309.774z"/>
				
					<path fill="none" stroke="#312725" stroke-width="0.5974" stroke-linecap="round" stroke-linejoin="round" stroke-miterlimit="10" d="
					M230.788,313.171c0,0,0.615-6.904-6.153-6.392"/>
			</g>
			<path fill="#FA849B" d="M229.222,355.445l44.078,2.777c0,0,1.396,14.559-18.208,13.556
				C233.032,370.648,229.222,355.445,229.222,355.445z"/>
		</g>
	</g>
	<g>
		<g>
			<g>
				<g>
					<polygon fill="#FA849B" points="1150.981,707.583 1107.523,688.168 1123.204,664.771 1170.443,686.768 1156.59,705.286 					
						"/>
					<g>
						<path fill="#181F42" d="M1159.678,677.687c0,0-5.97,25.504-26.685,25.003l-5.094,60.361l57.39-76.715L1159.678,677.687z"/>
						<polygon fill="#FFFFFF" points="1135.459,768.245 1192.853,691.533 1185.289,686.336 1127.899,763.051 						"/>
						
							<path fill="none" stroke="#FFFFFF" stroke-width="1.5477" stroke-linecap="round" stroke-linejoin="round" stroke-miterlimit="10" d="
							M1132.329,710.583c0,0,4.687-1.673,11.813-1.668"/>
						
							<path fill="none" stroke="#FFFFFF" stroke-width="1.5477" stroke-linecap="round" stroke-linejoin="round" stroke-miterlimit="10" d="
							M1130.982,719.442c0,0,4.687-1.669,11.813-1.669"/>
						
							<path fill="none" stroke="#FFFFFF" stroke-width="1.5477" stroke-linecap="round" stroke-linejoin="round" stroke-miterlimit="10" d="
							M1129.636,728.305c0,0,4.691-1.672,11.818-1.668"/>
					</g>
				</g>
				<path fill="#243B77" d="M1050.117,454.064c0,0-28.395,101.547-32.575,121.566c-4.176,20.023-12.533,60.065,5.018,74.484
					c17.55,14.414,84.964,48.987,84.964,48.987l24.806-42.668l-40.174-23.138L1050.117,454.064z"/>
			</g>
			<g>
				<g>
					<polygon fill="#FA849B" points="1088.408,776.988 1079.554,731.831 1108.531,730.409 1117.402,780.018 1093.623,780.018 					
						"/>
					<g>
						<path fill="#181F42" d="M1118.831,766.338c0,0-25.106,10.215-36.752-6.213l-54.16,31.204h98.497L1118.831,766.338z"/>
						<rect x="1027.919" y="791.329" fill="#FFFFFF" width="98.497" height="8.912"/>
						
							<path fill="none" stroke="#FFFFFF" stroke-width="1.5477" stroke-linecap="round" stroke-linejoin="round" stroke-miterlimit="10" d="
							M1074.996,764.206c0,0,4.15,2.679,8.297,8.229"/>
						
							<path fill="none" stroke="#FFFFFF" stroke-width="1.5477" stroke-linecap="round" stroke-linejoin="round" stroke-miterlimit="10" d="
							M1066.698,768.323c0,0,4.146,2.679,8.298,8.229"/>
						
							<path fill="none" stroke="#FFFFFF" stroke-width="1.5477" stroke-linecap="round" stroke-linejoin="round" stroke-miterlimit="10" d="
							M1058.397,772.436c0,0,4.15,2.68,8.301,8.23"/>
					</g>
				</g>
				<path fill="#2B4183" d="M1050.117,454.064l-2.817,153.189c-0.103,5.493,0.355,10.983,1.364,16.391l23.75,118.146h49.697
					l-13.867-133.243c0.587-24.506,9.073-51.95,12.246-81.835c0,0,9.742-55.438-16.968-72.369L1050.117,454.064z"/>
			</g>
		</g>
		<g>
			<g>
				<g>
					<g>
						<path fill="#FA849B" d="M1018.31,433.041l-81.255-28.491l-9.446,15.162l79.214,40.232
							c13.189,4.818,26.808-6.027,24.282-19.335l0,0C1029.942,434.495,1024.42,435.124,1018.31,433.041z"/>
					</g>
					<g>
						<g>
							<path fill="#FA849B" d="M927.071,392.991c-1.436-1.476-3.73-2.161-5.677-1.698c-2.654,0.632-3.713,3.12-2.289,5.373
								l1.17,1.847c-2.611,0.954-7.992,1.198-17.842-8.336c-1.655-1.604-4.378-1.984-6.084-0.848
								c-1.33,0.888-1.643,2.437-0.927,3.837c0.034,0.064,0.082,0.126,0.12,0.19c-1.371-0.427-2.863-0.323-3.949,0.399
								c-1.329,0.887-1.642,2.437-0.926,3.837c0.095,0.184,0.21,0.365,0.339,0.542c-0.673,0.066-1.317,0.258-1.853,0.615
								c-1.33,0.888-1.646,2.437-0.931,3.837c0.202,0.393,0.484,0.772,0.845,1.123c0.134,0.125,0.262,0.235,0.391,0.36
								c-0.061,0.033-0.125,0.057-0.18,0.095c-1.334,0.886-1.647,2.437-0.932,3.836c0.201,0.393,0.485,0.771,0.846,1.122
								c2.723,2.633,5.415,4.817,8.061,6.576l-0.009,0.004c0,0,0.052,0.031,0.125,0.077c1.252,0.826,2.487,1.543,3.713,2.171
								c5.694,3.169,17.872,0.512,28.347,2.13l8.178-14.785L927.071,392.991z"/>
						</g>
						<polygon fill="#FFCD2E" points="808.589,408.392 847.866,322.394 937.607,360.034 898.331,446.031 						"/>
						<path fill="#FA849B" d="M928.41,394.555l-7.963-8.895c-1.296-1.441-3.618-1.445-4.914-0.006l0,0
							c-0.862,0.955-1.033,2.312-0.438,3.436l4.01,7.577c0,0-3.431,10.31,4.742,19.246L928.41,394.555z"/>
					</g>
				</g>
				<g>
					<path fill="#FA849B" d="M1054.324,434.678l-29.582,22.639c-5.969,4.569-14.292,5.053-20.793,1.206l0,0
						c-9.154-5.413-14.75-10.41-8.156-18.554l32.494-31.577L1054.324,434.678z"/>
					<path fill="#7041FD" d="M1077.234,407.574c0,0-3.933,18.604-27.263,35.484L1014,410.511l29.106-31.084L1077.234,407.574z"/>
				</g>
			</g>
			<g>
				<g>
					<g>
						<path fill="#FA849B" d="M1133.379,432.157l62.548,75.609l14.158-8.987c0,0-35.894-64.032-52.569-84.231
							c-8.76-10.607-26.297-7.827-31.155,4.871l0,0C1124.126,425.252,1129.216,427.393,1133.379,432.157z"/>
					</g>
					<g>
						<path fill="#FA849B" d="M1198.954,522.974c0.515,1.902,2.136,3.509,4.026,3.981c2.577,0.646,4.688-1.011,4.563-3.57
							l-0.104-2.1c2.693,0.349,7.41,2.539,11.195,15.076c0.64,2.107,2.779,3.645,4.786,3.435c1.565-0.168,2.59-1.352,2.654-2.868
							c0.004-0.069-0.009-0.144-0.009-0.214c0.965,0.979,2.29,1.554,3.567,1.418c1.565-0.164,2.585-1.348,2.654-2.864
							c0.009-0.197-0.005-0.406-0.03-0.612c0.609,0.243,1.252,0.366,1.887,0.3c1.565-0.164,2.586-1.348,2.654-2.863
							c0.017-0.424-0.039-0.875-0.18-1.336c-0.048-0.164-0.104-0.316-0.155-0.48c0.064-0.004,0.134,0.008,0.202,0
							c1.565-0.164,2.586-1.348,2.654-2.864c0.018-0.427-0.038-0.875-0.181-1.335c-1.041-3.46-2.285-6.529-3.691-9.209h0.009
							c0,0-0.025-0.049-0.068-0.123c-0.669-1.262-1.377-2.428-2.118-3.509c-3.323-5.243-15.021-8.403-23.186-14.456l-14.158,8.987
							L1198.954,522.974z"/>
					</g>
				</g>
				<g>
					<path fill="#FA849B" d="M1124.054,385.549l28.454,23.925c5.745,4.828,7.705,12.594,4.897,19.404l0,0
						c-3.954,9.587-8.101,15.744-17.629,10.957l-38.149-25.101L1124.054,385.549z"/>
					<path fill="#8155FF" d="M1087.418,368.859c0,0,24.358,0.4,45.846,19.396l-19.381,34.542l-38.106-12.667L1087.418,368.859z"/>
				</g>
			</g>
			<g>
				<path fill="#8155FF" d="M1056.566,370.918c0,0-23.652,6.265-23.734,36.658c-0.043,16.591,17.285,46.488,17.285,46.488
					l53.405,0.279c0,0,7.843-20.849,12.538-39.689c4.695-18.842-10.338-36.752-28.643-45.795L1056.566,370.918z"/>
				<polygon fill="#7041FD" points="1113.883,422.796 1092.923,408.392 1109.088,438.387 				"/>
			</g>
		</g>
		<g>
			<g>
				<g>
					<g>
						<path fill="#F8879D" d="M1070.034,380.654L1070.034,380.654c7.405-1.059,10.033-5.813,8.932-12.913l-8.232-40.688
							l-22.349,3.429l6.235,39.235C1055.722,376.817,1062.625,381.713,1070.034,380.654z"/>
					</g>
					<path fill="#32292A" d="M1065.618,335.104c0,0,7.246,21.689-11.964,29.065l-1.779-12.947l19.737-14.306"/>
				</g>
				<g>
					<path fill="#F8879D" d="M1049.059,354.011L1049.059,354.011c13.953-1.267,24.308-11.968,23.128-23.903l-3.858-39.078
						l-23.527,0.064c-8.67,0.787-20.6,11.806-19.866,19.222l4.103,24.265C1029.896,343.252,1037.326,355.075,1049.059,354.011z"/>
					<path fill="#F8879D" d="M1030.123,320.4l-5.352,13.09c-0.866,1.351,0.326,2.986,2.063,2.828l9.197-0.823L1030.123,320.4z"/>
				</g>
			</g>
			<g>
				<path fill="#312725" d="M1034.805,314.32c0,0-5.016,0.134-4.832,2.14c0,0,0.163,1.354,4.532,1.154
					c4.364-0.199,5.454-0.635,5.703-1.951C1040.452,314.349,1037.138,314.081,1034.805,314.32z"/>
				<path fill="#312725" d="M1035.07,323.796c0.172,1.134-0.617,2.186-1.767,2.347c-1.145,0.162-2.212-0.627-2.388-1.763
					c-0.172-1.135,0.622-2.186,1.767-2.347C1033.832,321.871,1034.899,322.66,1035.07,323.796z"/>
				
					<path fill="none" stroke="#312725" stroke-width="0.5974" stroke-linecap="round" stroke-linejoin="round" stroke-miterlimit="10" d="
					M1033.468,339.028c0,0,3.499,0,5.123-3.924"/>
			</g>
			<path fill="#F8879D" d="M1072.277,366.542l15.141,2.317c0,0-15.904,24.691-31.559,18.769c-18.049-6.83,5.883-19.812,5.883-19.812
				L1072.277,366.542z"/>
			<path fill="#32292A" d="M1065.923,322.18c-11.818-2.893-14.064-13.514-14.064-13.514l-31.289,5.92
				c0,0-4.845-29.865,32.605-35.496c18.776-2.823,30.77,5.874,37.099,14.574c6.028,8.285,6.62,19.129,2.405,28.388
				c-2.988,6.566-10.673,15.758-19.056,19.951l-2.89-14.95C1070.733,327.054,1068.027,322.694,1065.923,322.18z"/>
			<g>
				<path fill="#F8879D" d="M1080.93,320.023c-0.052,5.324-4.455,9.619-9.836,9.594c-5.382-0.024-9.703-4.36-9.651-9.685
					c0.05-5.323,4.454-9.62,9.836-9.594C1076.663,310.364,1080.981,314.7,1080.93,320.023z"/>
				
					<path fill="none" stroke="#312725" stroke-width="0.6026" stroke-linecap="round" stroke-linejoin="round" stroke-miterlimit="10" d="
					M1067.84,322.277c0,0,0.064-6.989,6.809-5.857"/>
			</g>
			<path fill="#32292A" d="M1130.738,281.732c2.237,12.695-6.689,24.725-19.938,26.869c-13.246,2.144-25.801-6.411-28.039-19.107
				c-2.238-12.696,6.688-24.725,19.938-26.869S1128.5,269.037,1130.738,281.732z"/>
		</g>
	</g>
</g>
</svg>
